<svg xmlns="http://www.w3.org/2000/svg" width="477.715" height="371" viewBox="0 0 477.715 371"><defs><style>.a{fill:#e6e6e6;}.b{fill:#083229;}.c{fill:#fff;}.d{fill:#f2f2f2;}.e,.g,.h{fill:#1bbc9b;}.f,.i{fill:none;stroke:#fafafa;}.f{stroke-miterlimit:10;}.g{opacity:0.3;}.h,.i{font-size:54px;font-family:Prototype;letter-spacing:0.07em;}</style></defs><g transform="translate(-688 -147)"><g transform="translate(-39 25.5)"><g transform="translate(727 121.5)"><path class="a" d="M600.574,285.452c52.017,57.525-98.772,140.427-220.612,140.427S173.826,361.644,159.35,285.452C124.249,100.71,458.418-16.711,379.962,145.025,265.6,380.772,559.609,240.149,600.574,285.452Z" transform="translate(-133.417 -68.493)"/><path class="b" d="M552.574,313.452c52.017,57.525-98.772,140.427-220.612,140.427S125.826,389.644,111.35,313.452C76.249,128.71,410.418,11.289,331.962,173.025,217.6,408.772,511.609,268.149,552.574,313.452Z" transform="translate(-108.756 -82.879)"/><circle class="a" cx="2.917" cy="2.917" r="2.917" transform="translate(56.843 217.295)"/><circle class="a" cx="2.917" cy="2.917" r="2.917" transform="translate(261.059 317.458)"/><circle class="a" cx="1.459" cy="1.459" r="1.459" transform="translate(72.402 163.81)"/><circle class="a" cx="1.459" cy="1.459" r="1.459" transform="translate(192.987 272.725)"/><circle class="a" cx="1.459" cy="1.459" r="1.459" transform="translate(412.276 258.625)"/><circle class="a" cx="1.459" cy="1.459" r="1.459" transform="translate(343.718 301.899)"/><circle class="a" cx="1.459" cy="1.459" r="1.459" transform="translate(272.242 249.386)"/><circle class="a" cx="1.459" cy="1.459" r="1.459" transform="translate(179.859 105.462)"/><circle class="a" cx="1.459" cy="1.459" r="1.459" transform="translate(191.528 33.5)"/><circle class="a" cx="1.459" cy="1.459" r="1.459" transform="translate(184.721 336.421)"/><circle class="a" cx="1.459" cy="1.459" r="1.459" transform="translate(112.759 305.789)"/><circle class="a" cx="1.459" cy="1.459" r="1.459" transform="translate(340.801 253.276)"/><circle class="c" cx="4.376" cy="4.376" r="4.376" transform="translate(67.768 104.928)"/><circle class="a" cx="19.464" cy="19.464" r="19.464" transform="translate(286.114 68.394)"/><path class="b" d="M702.892,396.453l-20.34-20.34a21.543,21.543,0,1,0-6.47,6.47l20.34,20.34a4.575,4.575,0,1,0,6.47-6.47Zm-27.57-21.1a15.406,15.406,0,1,1,4.512-10.893A15.406,15.406,0,0,1,675.323,375.353Z" transform="translate(-349.612 -283.583)"/></g><g transform="translate(779 185.337)"><ellipse class="d" cx="129.062" cy="6.596" rx="129.062" ry="6.596" transform="translate(34.988 220.579)"/><path class="e" d="M480.632,324.894c-26.078,0-44.8,16.731-44.8,55.771,0,44.245,18.724,55.957,44.8,55.957s45.918-12.827,45.918-55.957C526.549,334.561,506.71,324.894,480.632,324.894Zm.171,97.041c-18.063,0-27.5-10.6-27.5-41.242,0-27.04,9.823-41.3,27.885-41.3s27.885,9.366,27.885,41.3c0,29.873-10.209,41.242-28.272,41.242Z" transform="translate(-322.716 -243.721)"/><path class="e" d="M198.726,415.84H187.943V384.089a6.359,6.359,0,0,0-6.359-6.359h-2.526a6.359,6.359,0,0,0-6.359,6.359V415.84H142.286a3.63,3.63,0,0,1-3.21-5.326l32.189-60.924a6.359,6.359,0,0,0-2.907-8.72l-1.9-.9a6.359,6.359,0,0,0-8.323,2.752l-39.259,73.441a8.622,8.622,0,0,0-1.018,4.065h0a8.622,8.622,0,0,0,8.622,8.622H172.7V448.93a7.622,7.622,0,0,0,7.622,7.622h0a7.622,7.622,0,0,0,7.622-7.622V428.853h10.782a6.507,6.507,0,0,0,6.507-6.507h0a6.507,6.507,0,0,0-6.507-6.507Z" transform="translate(-101.228 -253.799)"/><path class="e" d="M856.722,415.84H845.94V384.089a6.359,6.359,0,0,0-6.358-6.359h-2.526a6.359,6.359,0,0,0-6.359,6.359V415.84H800.283a3.63,3.63,0,0,1-3.21-5.326l32.189-60.924a6.359,6.359,0,0,0-2.907-8.72l-1.9-.9a6.359,6.359,0,0,0-8.323,2.752l-39.259,73.441a8.623,8.623,0,0,0-1.018,4.065h0a8.622,8.622,0,0,0,8.622,8.622H830.7V448.93a7.622,7.622,0,0,0,7.622,7.622h0a7.622,7.622,0,0,0,7.622-7.622V428.853h10.782a6.507,6.507,0,0,0,6.507-6.507h0a6.507,6.507,0,0,0-6.507-6.507Z" transform="translate(-559.566 -253.799)"/><path class="f" d="M208.529,403.587H197.746V371.836a6.359,6.359,0,0,0-6.359-6.359h-2.527a6.359,6.359,0,0,0-6.359,6.359v31.751H152.089a3.63,3.63,0,0,1-3.21-5.326l32.189-60.924a6.359,6.359,0,0,0-2.907-8.72l-1.9-.9a6.359,6.359,0,0,0-8.323,2.752l-39.259,73.441a8.622,8.622,0,0,0-1.018,4.065h0a8.622,8.622,0,0,0,8.622,8.622H182.5v20.078a7.622,7.622,0,0,0,7.622,7.622h0a7.622,7.622,0,0,0,7.622-7.622V416.6h10.782a6.507,6.507,0,0,0,6.507-6.507h0a6.507,6.507,0,0,0-6.506-6.507Z" transform="translate(-108.057 -245.264)"/><path class="f" d="M875.1,403.587H864.319V371.836a6.359,6.359,0,0,0-6.359-6.359h-2.526a6.359,6.359,0,0,0-6.359,6.359v31.751H818.662a3.63,3.63,0,0,1-3.21-5.326l32.189-60.924a6.359,6.359,0,0,0-2.907-8.72l-1.9-.9a6.359,6.359,0,0,0-8.323,2.752l-39.259,73.441a8.623,8.623,0,0,0-1.018,4.065h0a8.622,8.622,0,0,0,8.622,8.622h46.219v20.078A7.622,7.622,0,0,0,856.7,444.3h0a7.622,7.622,0,0,0,7.622-7.622V416.6H875.1a6.507,6.507,0,0,0,6.506-6.507h0a6.507,6.507,0,0,0-6.507-6.507Z" transform="translate(-572.368 -245.264)"/><path class="f" d="M500.237,313.866c-26.078,0-44.8,16.731-44.8,55.771,0,44.245,18.724,55.957,44.8,55.957s45.918-12.827,45.918-55.957C546.155,323.533,526.315,313.866,500.237,313.866Zm.171,97.041c-18.063,0-27.5-10.6-27.5-41.242,0-27.04,9.823-41.3,27.885-41.3s27.885,9.366,27.885,41.3c0,29.873-10.209,41.242-28.272,41.242Z" transform="translate(-336.372 -236.04)"/><circle class="c" cx="1.517" cy="1.517" r="1.517" transform="translate(145.633 122.472)"/><circle class="c" cx="1.517" cy="1.517" r="1.517" transform="translate(173.852 122.472)"/><circle class="g" cx="1.517" cy="1.517" r="1.517" transform="translate(138.35 136.734)"/></g></g><text class="h" transform="translate(778 257)"><tspan x="0" y="0">Oops!</tspan></text><text class="i" transform="translate(780.5 254.5)"><tspan x="0" y="0">Oops!</tspan></text></g></svg>