<svg xmlns="http://www.w3.org/2000/svg" width="170.587" height="344" viewBox="0 0 170.587 344">
  <g id="charecter1" transform="translate(0 0)">
    <ellipse id="Ellipse_29" data-name="Ellipse 29" cx="85.294" cy="11.722" rx="85.294" ry="11.722" transform="translate(0 320.555)" fill="#e6e6e6"/>
    <path id="Path_83" data-name="Path 83" d="M357.241,429.179l2.194,4.534s12.453,16.62,4.76,19.224-11.776-15.763-11.776-15.763l-2.034-2.571Z" transform="translate(-215.1 -271.89)" fill="#ffb8b8"/>
    <path id="Path_84" data-name="Path 84" d="M334.215,307.305l2.047-.866s2.423.866,2.423,4.591-2.98,58.1-2.98,58.1l5.959,29.8-8.194,1.49-12.664-27.563Z" transform="translate(-206.419 -235.869)" fill="#575a89"/>
    <path id="Path_85" data-name="Path 85" d="M334.215,307.305l2.047-.866s2.423.866,2.423,4.591-2.98,58.1-2.98,58.1l16.016,25.7-10.429,7.449-20.486-29.425Z" transform="translate(-206.419 -235.869)" fill="#575a89"/>
    <path id="Path_86" data-name="Path 86" d="M306.114,428.733s9.684,3.725,8.939,10.429S304.624,579.21,304.624,579.21l2.98,14.9-28.307.745-.745-96.1-20.113,96.1H230.131l20.113-169.1Z" transform="translate(-179.808 -270.884)" fill="#2f2e41"/>
    <path id="Path_87" data-name="Path 87" d="M324.611,659.822l6.7,6.7s15.644,2.98,11.919,8.194-42.461-1.49-42.461-1.49l.745-11.919Z" transform="translate(-200.539 -339.578)" fill="#2f2e41"/>
    <path id="Path_88" data-name="Path 88" d="M256.077,659.822l6.7,6.7s15.644,2.98,11.919,8.194-42.461-1.49-42.461-1.49l.745-11.919Z" transform="translate(-180.426 -339.578)" fill="#2f2e41"/>
    <circle id="Ellipse_30" data-name="Ellipse 30" cx="17.878" cy="17.878" r="17.878" transform="translate(84.59 8.862)" fill="#ffb8b8"/>
    <path id="Path_89" data-name="Path 89" d="M150.636,52.609l-1.49,30.542L126.053,69.743l2.979-17.134Z" transform="translate(-36.994 -15.44)" fill="#ffb8b8"/>
    <path id="Path_90" data-name="Path 90" d="M125,66.316,146.6,81.96l3.725-11.174,6.7,17.879L153.306,120.7Z" transform="translate(-36.684 -19.462)" fill="#cfcce0"/>
    <path id="Path_91" data-name="Path 91" d="M274.93,269.708l23.838,32.777.863-27.381,7.331,5.778v5.959l10.429,9.684-3.725,37.247-.745,43.951s4.47,3.725,2.98,5.959-7.449,7.449-14.154,7.449-48.421-5.215-48.421-8.194,1.49-41.716,1.49-41.716V289.076l17.878-13.409Z" transform="translate(-186.615 -225.089)" fill="#575a89"/>
    <path id="Path_92" data-name="Path 92" d="M92.313,236.011,102,250.165l3.725-16.389-4.469-2.979Z" transform="translate(-27.092 -67.734)" fill="#ffb8b8"/>
    <rect id="Rectangle_47" data-name="Rectangle 47" width="41.35" height="1.49" transform="matrix(0.346, -0.938, 0.938, 0.346, 97.877, 228.412)" opacity="0.2"/>
    <path id="Path_93" data-name="Path 93" d="M285.213,215.789s2.235-11.174,14.9-8.939l-1.49.745s11.919-1.49,10.429,5.215c0,0,9.684,5.959,7.449,12.664a75.8,75.8,0,0,0-2.98,11.919l-2.235-2.235s-2.235-14.9-15.644-13.409c-10.057,1.117-14.154,5.866-15.2,9.288a30.225,30.225,0,0,1-1.84,4.682l-.837.184S273.294,219.514,285.213,215.789Z" transform="translate(-193.546 -206.555)" fill="#2f2e41"/>
    <path id="Path_94" data-name="Path 94" d="M253.062,295.936l-6.781-.315-1.413,1.06a44.6,44.6,0,0,0-4.47,5.215c-1.49,2.235-20.858,56.615-20.858,56.615a18.982,18.982,0,0,0,1.49,9.684c2.235,5.215,20.113,36.5,20.113,36.5l13.409-8.194L236.674,360l12.664-17.878Z" transform="translate(-176.667 -232.694)" fill="#575a89"/>
  </g>
</svg>
