<svg xmlns="http://www.w3.org/2000/svg" width="138.552" height="276.979" viewBox="0 0 138.552 276.979">
  <g id="charecter2" transform="translate(-641.447 -3.868)">
    <ellipse id="Ellipse_28" data-name="Ellipse 28" cx="69.276" cy="9.549" rx="69.276" ry="9.549" transform="translate(641.447 261.749)" fill="#e6e6e6"/>
    <path id="Path_95" data-name="Path 95" d="M726.044,420.319v16.345h9.807l1.308-16.345Z" transform="translate(-35.91 -176.778)" fill="#a0616a"/>
    <path id="Path_96" data-name="Path 96" d="M766.372,415.272l3.922,9.153,6.538,2.615,1.308-18.306-5.23-2.615Z" transform="translate(-53.029 -170.75)" fill="#a0616a"/>
    <path id="Path_97" data-name="Path 97" d="M935.038,630.66s-.555-4.127-6.161-2.39l.931,12.2s-4.577,13.729,1.961,12.422,10.46-13.729,10.46-13.729l4.576-20.921L935.754,615Z" transform="translate(-213.195 -378.292)" fill="#2f2e41"/>
    <path id="Path_98" data-name="Path 98" d="M863.617,401.382s-9.153,69.3-5.884,77.145,37.592,58.513,37.592,58.513l15.037-19.613-33.669-42.168,31.381-43.149,2.615-26.151Z" transform="translate(-182.962 -287.614)" fill="#2f2e41"/>
    <path id="Path_99" data-name="Path 99" d="M750.593,237.994l8.631,4.567-.132,1.317L737.845,350.116,721.5,346.847l10.787-74.857Z" transform="translate(-33.981 -99.383)" fill="#2f2e41"/>
    <path id="Path_100" data-name="Path 100" d="M877.7,646.754l-3.923,5.883s-8.5,14.383.654,14.383,13.075,0,13.729-3.269a43.066,43.066,0,0,1,1.961-6.538l-.654-8.5Z" transform="translate(-188.549 -391.771)" fill="#2f2e41"/>
    <circle id="Ellipse_31" data-name="Ellipse 31" cx="14.383" cy="14.383" r="14.383" transform="translate(700.267 9.818)" fill="#a0616a"/>
    <path id="Path_101" data-name="Path 101" d="M903.085,253.7s1.961,11.114-3.923,13.075,7.192,28.112,7.192,28.112l15.036-24.843s-3.923-8.5-1.308-12.422Z" transform="translate(-200.202 -224.927)" fill="#a0616a"/>
    <path id="Path_102" data-name="Path 102" d="M891.563,290.245l-3.549-21.3-6.911,4.307L862.8,283.707l7.192,30.728-2.615,18.959s-3.269,5.884-2.615,8.5-.654,3.923,0,4.576,33.342,5.884,43.149,9.807,11.114,5.23,10.46,1.961-7.845-18.96-7.845-18.96l5.884-26.151,7.845-22.882-19.046-17.577Z" transform="translate(-185.411 -231.395)" fill="#575a89"/>
    <path id="Path_103" data-name="Path 103" d="M952.375,354.014l4.576,12.422L945.183,388.01,941.343,391a3.922,3.922,0,0,0-1.385,4.094l2.61,9.917,6.84-10.159s18.657-22.53,18-28.414S964.8,351.4,964.8,351.4Z" transform="translate(-218.11 -266.397)" fill="#a0616a"/>
    <path id="Path_104" data-name="Path 104" d="M830.986,337.767l-3.269,16.344L815.3,384.838s-13.729,13.075-7.191,15.69,14.383-13.075,14.383-13.075l15.691-29.42,5.884-17.652Z" transform="translate(-161.446 -260.611)" fill="#a0616a"/>
    <path id="Path_105" data-name="Path 105" d="M955.155,303.339l5.263-.473,1.929,1.78s11.114,24.843,9.807,27.458-14.383,3.923-14.383,3.923l-5.23-15.69Z" transform="translate(-223.506 -245.796)" fill="#575a89"/>
    <path id="Path_106" data-name="Path 106" d="M859.753,294.692l-3.243-1.415-1.333.762S842.1,320.189,845.37,321.5s18.959,3.269,18.959,3.269Z" transform="translate(-177.791 -241.725)" fill="#575a89"/>
    <path id="Path_107" data-name="Path 107" d="M730.024,328.6l-3.985,27.656-3.71-5.7Z" transform="translate(-34.333 -137.843)" opacity="0.2"/>
    <path id="Path_108" data-name="Path 108" d="M926.052,222.238s1.448,3.813-5.275,1.858c0,0-2.663,1.3-2.508-.918,0,0-3.672,3.455-4.37,1.179s-2.612.56-2.612.56l-1.449-3.813-1.862,2.1L902,222.784s-.674-14.893,19.7-11.984,8.666,25.612,8.666,25.612.129-4.213-1.733-2.116S926.052,222.238,926.052,222.238Z" transform="translate(-202.053 -206.555)" fill="#2f2e41"/>
  </g>
</svg>
