<svg width="20" height="13" viewBox="0 0 20 13" fill="none" xmlns="http://www.w3.org/2000/svg">
<path d="M12.9974 6.05933C12.9974 7.66656 11.653 8.96947 9.99457 8.96947C8.33617 8.96947 6.99177 7.66656 6.99177 6.05933C6.99177 4.45209 8.33617 3.1492 9.99457 3.1492C11.653 3.14918 12.9974 4.45211 12.9974 6.05933ZM10 0C8.28292 0.00770474 6.5031 0.430555 4.81827 1.24013C3.5673 1.86598 2.34817 2.74897 1.2899 3.83885C0.770133 4.39519 0.107183 5.20077 0 6.06028C0.0126667 6.80481 0.802167 7.72378 1.2899 8.28172C2.28228 9.32879 3.46967 10.1871 4.81827 10.8811C6.38945 11.6524 8.12853 12.0965 10 12.1212C11.7187 12.1134 13.4981 11.6857 15.1811 10.8811C16.4321 10.2552 17.6518 9.3716 18.7101 8.28172C19.2299 7.72538 19.8928 6.91979 20 6.06028C19.9873 5.31575 19.1978 4.39674 18.7101 3.83882C17.7177 2.79175 16.5297 1.93406 15.1811 1.24009C13.6107 0.469349 11.8674 0.0283069 10 0ZM9.99873 1.50467C12.6007 1.50467 14.71 3.54455 14.71 6.06094C14.71 8.5773 12.6007 10.6172 9.99873 10.6172C7.39675 10.6172 5.28748 8.57728 5.28748 6.06094C5.28748 3.54455 7.39675 1.50467 9.99873 1.50467Z" fill="#083229"/>
</svg>
