<svg width="28" height="28" viewBox="0 0 28 28" fill="none" xmlns="http://www.w3.org/2000/svg">
<path d="M28 14L22.4 8.4V12.6H11.2V15.4H22.4V19.6L28 14ZM25.2 22.4C23.437 24.7507 20.979 26.4871 18.1743 27.3632C15.3696 28.2393 12.3604 28.2108 9.57281 27.2816C6.78524 26.3524 4.3607 24.5697 2.64261 22.1859C0.924523 19.8022 0 16.9384 0 14C0 11.0616 0.924523 8.19777 2.64261 5.81406C4.3607 3.43034 6.78524 1.64762 9.57281 0.718434C12.3604 -0.210755 15.3696 -0.239312 18.1743 0.636811C20.979 1.51293 23.437 3.24932 25.2 5.6H21.378C19.7614 4.17433 17.7678 3.2454 15.6364 2.92468C13.505 2.60396 11.3263 2.90508 9.36179 3.7919C7.39727 4.67871 5.73036 6.11356 4.5611 7.92426C3.39184 9.73496 2.7699 11.8446 2.7699 14C2.7699 16.1554 3.39184 18.265 4.5611 20.0757C5.73036 21.8864 7.39727 23.3213 9.36179 24.2081C11.3263 25.0949 13.505 25.396 15.6364 25.0753C17.7678 24.7546 19.7614 23.8257 21.378 22.4H25.2Z" fill="#FAFAFA"/>
</svg>
