<svg width="30" height="40" viewBox="0 0 30 40" fill="none" xmlns="http://www.w3.org/2000/svg">
<path d="M6.25 20C5.91848 20 5.60054 20.1317 5.36612 20.3661C5.1317 20.6005 5 20.9185 5 21.25C5 21.5815 5.1317 21.8995 5.36612 22.1339C5.60054 22.3683 5.91848 22.5 6.25 22.5H23.75C24.0815 22.5 24.3995 22.3683 24.6339 22.1339C24.8683 21.8995 25 21.5815 25 21.25C25 20.9185 24.8683 20.6005 24.6339 20.3661C24.3995 20.1317 24.0815 20 23.75 20H6.25ZM6.25 25C5.91848 25 5.60054 25.1317 5.36612 25.3661C5.1317 25.6005 5 25.9185 5 26.25C5 26.5815 5.1317 26.8995 5.36612 27.1339C5.60054 27.3683 5.91848 27.5 6.25 27.5H23.75C24.0815 27.5 24.3995 27.3683 24.6339 27.1339C24.8683 26.8995 25 26.5815 25 26.25C25 25.9185 24.8683 25.6005 24.6339 25.3661C24.3995 25.1317 24.0815 25 23.75 25H6.25ZM6.25 30C5.91848 30 5.60054 30.1317 5.36612 30.3661C5.1317 30.6005 5 30.9185 5 31.25C5 31.5815 5.1317 31.8995 5.36612 32.1339C5.60054 32.3683 5.91848 32.5 6.25 32.5H23.75C24.0815 32.5 24.3995 32.3683 24.6339 32.1339C24.8683 31.8995 25 31.5815 25 31.25C25 30.9185 24.8683 30.6005 24.6339 30.3661C24.3995 30.1317 24.0815 30 23.75 30H6.25ZM0 5C0 3.67392 0.526784 2.40215 1.46447 1.46447C2.40215 0.526784 3.67392 0 5 0H16.465C17.4592 0.00087526 18.4124 0.396538 19.115 1.1L28.9025 10.885C29.605 11.588 29.9998 12.5411 30 13.535V35C30 36.3261 29.4732 37.5978 28.5355 38.5355C27.5979 39.4732 26.3261 40 25 40H5C3.67392 40 2.40215 39.4732 1.46447 38.5355C0.526784 37.5978 0 36.3261 0 35V5ZM5 2.5C4.33696 2.5 3.70107 2.76339 3.23223 3.23223C2.76339 3.70107 2.5 4.33696 2.5 5V35C2.5 35.663 2.76339 36.2989 3.23223 36.7678C3.70107 37.2366 4.33696 37.5 5 37.5H25C25.663 37.5 26.2989 37.2366 26.7678 36.7678C27.2366 36.2989 27.5 35.663 27.5 35V15H18.75C17.7554 15 16.8016 14.6049 16.0983 13.9016C15.3951 13.1984 15 12.2446 15 11.25V2.5H5ZM18.75 12.5H26.9825L17.5 3.0175V11.25C17.5 11.5815 17.6317 11.8995 17.8661 12.1339C18.1005 12.3683 18.4185 12.5 18.75 12.5Z" fill="#FAFAFA"/>
</svg>
