<svg width="24" height="32" viewBox="0 0 24 32" fill="none" xmlns="http://www.w3.org/2000/svg">
<path d="M1.71514 31.2C1.42067 31.1991 1.1314 31.1215 0.875208 30.9747C0.61043 30.8242 0.389954 30.6052 0.236347 30.3403C0.0827392 30.0753 0.00151723 29.7738 0.000993805 29.4667V4.03867C-0.0221785 2.99922 0.360668 1.9924 1.06656 1.23643C1.77246 0.480451 2.74453 0.0362171 3.77211 0H20.2279C21.2555 0.0362171 22.2275 0.480451 22.9334 1.23643C23.6393 1.9924 24.0222 2.99922 23.999 4.03867V29.4667C23.9972 29.7692 23.9171 30.0659 23.7668 30.3274C23.6164 30.5889 23.401 30.8061 23.1419 30.9573C22.8814 31.1095 22.5858 31.1896 22.2849 31.1896C21.984 31.1896 21.6884 31.1095 21.4278 30.9573L11.7086 25.3933L2.57221 30.94C2.31432 31.1019 2.01855 31.1916 1.71514 31.2Z" fill="#083229"/>
</svg>
