<svg width="1100" height="704" viewBox="0 0 1100 704" fill="none" xmlns="http://www.w3.org/2000/svg">
<g clip-path="url(#clip0_593_2)">
<g clip-path="url(#clip1_593_2)">
<path d="M1082.91 0.57312H17.0873C7.65022 0.57312 0 8.22334 0 17.6604V581.54C0 590.977 7.65022 598.627 17.0873 598.627H1082.91C1092.35 598.627 1100 590.977 1100 581.54V17.6604C1100 8.22334 1092.35 0.57312 1082.91 0.57312Z" fill="#030303"/>
<path d="M423.36 693.311C423.36 693.311 391.707 699.421 449.085 702.406C506.463 705.39 665.954 703.659 680.397 699.015C694.839 694.37 678.622 695.23 678.622 695.23L423.36 693.311Z" fill="#9E9E9E"/>
<path d="M464.537 599.104C464.537 599.104 462.849 669.29 454.065 681.957C445.281 694.624 401.367 690.317 420.622 696.567C439.877 702.816 666.885 701.211 681.326 696.567C695.767 691.922 656.751 694.793 646.954 681.957C637.157 669.121 636.482 599.104 636.482 599.104H464.537Z" fill="url(#paint0_linear_593_2)"/>
<path d="M1063.55 30.191H37.5923V485.851H1063.55V30.191Z" fill="white"/>
<path d="M1100 517.747H0V598.627H1100V517.747Z" fill="#CED0D3"/>
<path d="M562.471 559.855C562.491 558.075 562.961 556.329 563.839 554.78C564.717 553.232 565.974 551.931 567.492 551C566.527 549.627 565.257 548.496 563.782 547.696C562.307 546.896 560.666 546.448 558.989 546.389C555.368 546.022 551.926 548.521 550.084 548.521C548.242 548.521 545.414 546.444 542.411 546.498C540.439 546.553 538.516 547.12 536.83 548.142C535.143 549.164 533.751 550.607 532.791 552.33C528.69 559.447 531.74 569.986 535.738 575.762C537.691 578.587 540.02 581.761 543.078 581.647C546.023 581.533 547.137 579.741 550.697 579.741C554.257 579.741 555.254 581.647 558.375 581.589C561.544 581.53 563.551 578.709 565.491 575.875C566.878 573.837 567.963 571.61 568.714 569.263C566.868 568.476 565.293 567.166 564.184 565.494C563.075 563.822 562.479 561.861 562.471 559.855V559.855ZM556.617 542.571C558.372 540.511 559.242 537.841 559.037 535.143C556.388 535.4 553.937 536.66 552.187 538.666C551.313 539.638 550.644 540.776 550.219 542.012C549.794 543.248 549.622 544.558 549.713 545.862C551.039 545.881 552.352 545.594 553.55 545.023C554.747 544.452 555.797 543.613 556.617 542.571Z" fill="black"/>
<rect x="38" y="30" width="1026" height="47" fill="#E8E8E8"/>
<circle cx="63" cy="54" r="5" fill="#FF5F57"/>
<circle cx="76" cy="54" r="5" fill="#FFBE2F"/>
<circle cx="89" cy="54" r="5" fill="#28CA42"/>
<g filter="url(#filter0_i_593_2)">
<rect x="121" y="44" width="852" height="20" rx="5" fill="white"/>
</g>
<path fill-rule="evenodd" clip-rule="evenodd" d="M129 53.4V52.2C129 51.4044 129.316 50.6413 129.878 50.0787C130.441 49.5161 131.204 49.2 132 49.2C132.795 49.2 133.559 49.5161 134.121 50.0787C134.684 50.6413 135 51.4044 135 52.2V53.4C135.318 53.4 135.623 53.5264 135.848 53.7515C136.073 53.9765 136.2 54.2818 136.2 54.6V57.6C136.2 57.9183 136.073 58.2235 135.848 58.4485C135.623 58.6736 135.318 58.8 135 58.8H129C128.682 58.8 128.376 58.6736 128.151 58.4485C127.926 58.2235 127.8 57.9183 127.8 57.6V54.6C127.8 54.2818 127.926 53.9765 128.151 53.7515C128.376 53.5264 128.682 53.4 129 53.4V53.4ZM133.8 52.2V53.4H130.2V52.2C130.2 51.7226 130.389 51.2648 130.727 50.9272C131.065 50.5897 131.522 50.4 132 50.4C132.477 50.4 132.935 50.5897 133.273 50.9272C133.61 51.2648 133.8 51.7226 133.8 52.2V52.2Z" fill="#088043"/>
<path d="M141.088 58V49.084H142.168V52.708C142.324 52.452 142.562 52.224 142.882 52.024C143.202 51.82 143.61 51.718 144.106 51.718C144.51 51.718 144.876 51.794 145.204 51.946C145.532 52.094 145.792 52.306 145.984 52.582C146.176 52.858 146.272 53.186 146.272 53.566V58H145.162V53.788C145.162 53.416 145.034 53.13 144.778 52.93C144.526 52.726 144.196 52.624 143.788 52.624C143.508 52.624 143.246 52.67 143.002 52.762C142.762 52.85 142.566 52.986 142.414 53.17C142.266 53.35 142.192 53.58 142.192 53.86V58H141.088ZM150.861 52.606H149.463V56.464C149.463 56.796 149.515 57 149.619 57.076C149.727 57.148 149.927 57.184 150.219 57.184H150.897V57.928C150.817 57.956 150.701 57.98 150.549 58C150.397 58.02 150.207 58.03 149.979 58.03C149.335 58.03 148.901 57.9 148.677 57.64C148.457 57.38 148.347 57 148.347 56.5V52.606H147.339V51.796H148.377L148.647 49.99H149.463V51.79H150.861V52.606ZM155.537 52.606H154.139V56.464C154.139 56.796 154.191 57 154.295 57.076C154.403 57.148 154.603 57.184 154.895 57.184H155.573V57.928C155.493 57.956 155.377 57.98 155.225 58C155.073 58.02 154.883 58.03 154.655 58.03C154.011 58.03 153.577 57.9 153.353 57.64C153.133 57.38 153.023 57 153.023 56.5V52.606H152.015V51.796H153.053L153.323 49.99H154.139V51.79H155.537V52.606ZM157.131 59.932V51.796H158.235L158.247 52.876C158.343 52.708 158.477 52.532 158.649 52.348C158.825 52.16 159.047 52.002 159.315 51.874C159.583 51.742 159.907 51.676 160.287 51.676C161.027 51.676 161.631 51.932 162.099 52.444C162.567 52.956 162.801 53.746 162.801 54.814C162.801 55.878 162.571 56.696 162.111 57.268C161.651 57.836 161.013 58.12 160.197 58.12C159.829 58.12 159.515 58.054 159.255 57.922C158.999 57.786 158.789 57.622 158.625 57.43C158.461 57.238 158.335 57.054 158.247 56.878V59.932H157.131ZM159.987 57.256C160.499 57.256 160.917 57.062 161.241 56.674C161.565 56.282 161.727 55.674 161.727 54.85C161.727 54.146 161.579 53.586 161.283 53.17C160.987 52.75 160.555 52.54 159.987 52.54C159.411 52.54 158.975 52.754 158.679 53.182C158.383 53.61 158.235 54.166 158.235 54.85C158.235 55.294 158.301 55.698 158.433 56.062C158.565 56.426 158.761 56.716 159.021 56.932C159.281 57.148 159.603 57.256 159.987 57.256ZM166.411 58.12C165.975 58.12 165.573 58.052 165.205 57.916C164.837 57.78 164.529 57.572 164.281 57.292C164.037 57.008 163.885 56.642 163.825 56.194H164.833C164.913 56.558 165.095 56.832 165.379 57.016C165.667 57.2 166.009 57.292 166.405 57.292C166.821 57.292 167.157 57.214 167.413 57.058C167.669 56.902 167.797 56.662 167.797 56.338C167.797 55.902 167.523 55.618 166.975 55.486L165.691 55.168C165.187 55.048 164.785 54.86 164.485 54.604C164.189 54.348 164.041 53.99 164.041 53.53C164.037 52.986 164.233 52.542 164.629 52.198C165.025 51.85 165.617 51.676 166.405 51.676C167.077 51.676 167.619 51.828 168.031 52.132C168.447 52.436 168.663 52.878 168.679 53.458H167.701C167.657 53.162 167.523 52.928 167.299 52.756C167.075 52.58 166.773 52.492 166.393 52.492C165.997 52.492 165.675 52.572 165.427 52.732C165.179 52.888 165.055 53.132 165.055 53.464C165.055 53.684 165.143 53.858 165.319 53.986C165.495 54.11 165.755 54.214 166.099 54.298L167.341 54.61C167.721 54.71 168.017 54.852 168.229 55.036C168.441 55.22 168.589 55.422 168.673 55.642C168.757 55.862 168.799 56.074 168.799 56.278C168.799 56.85 168.589 57.3 168.169 57.628C167.749 57.956 167.163 58.12 166.411 58.12Z" fill="#088043"/>
<path d="M171.418 52.042V53.452H170.092V52.042H171.418ZM171.418 56.566V57.964H170.092V56.566H171.418ZM172.301 58.462L175.301 49.324H176.165L173.159 58.462H172.301ZM176.508 58.462L179.508 49.324H180.372L177.366 58.462H176.508ZM183.187 58.12C182.583 58.12 182.091 57.962 181.711 57.646C181.331 57.33 181.141 56.888 181.141 56.32C181.141 55.632 181.381 55.12 181.861 54.784C182.341 54.448 183.111 54.268 184.171 54.244L185.281 54.214V53.728C185.281 53.348 185.165 53.048 184.933 52.828C184.705 52.604 184.353 52.492 183.877 52.492C183.521 52.496 183.207 52.582 182.935 52.75C182.663 52.914 182.489 53.18 182.413 53.548H181.435C181.467 52.944 181.703 52.482 182.143 52.162C182.583 51.838 183.179 51.676 183.931 51.676C184.739 51.676 185.343 51.846 185.743 52.186C186.147 52.526 186.349 53.02 186.349 53.668V58H185.401L185.323 56.836C185.079 57.32 184.773 57.656 184.405 57.844C184.037 58.028 183.631 58.12 183.187 58.12ZM183.523 57.322C183.799 57.322 184.071 57.256 184.339 57.124C184.611 56.992 184.835 56.824 185.011 56.62C185.187 56.412 185.277 56.192 185.281 55.96V54.898L184.357 54.916C183.645 54.928 183.111 55.034 182.755 55.234C182.399 55.43 182.221 55.756 182.221 56.212C182.221 56.564 182.341 56.838 182.581 57.034C182.825 57.226 183.139 57.322 183.523 57.322ZM190.341 58.12C189.905 58.12 189.503 58.052 189.135 57.916C188.767 57.78 188.459 57.572 188.211 57.292C187.967 57.008 187.815 56.642 187.755 56.194H188.763C188.843 56.558 189.025 56.832 189.309 57.016C189.597 57.2 189.939 57.292 190.335 57.292C190.751 57.292 191.087 57.214 191.343 57.058C191.599 56.902 191.727 56.662 191.727 56.338C191.727 55.902 191.453 55.618 190.905 55.486L189.621 55.168C189.117 55.048 188.715 54.86 188.415 54.604C188.119 54.348 187.971 53.99 187.971 53.53C187.967 52.986 188.163 52.542 188.559 52.198C188.955 51.85 189.547 51.676 190.335 51.676C191.007 51.676 191.549 51.828 191.961 52.132C192.377 52.436 192.593 52.878 192.609 53.458H191.631C191.587 53.162 191.453 52.928 191.229 52.756C191.005 52.58 190.703 52.492 190.323 52.492C189.927 52.492 189.605 52.572 189.357 52.732C189.109 52.888 188.985 53.132 188.985 53.464C188.985 53.684 189.073 53.858 189.249 53.986C189.425 54.11 189.685 54.214 190.029 54.298L191.271 54.61C191.651 54.71 191.947 54.852 192.159 55.036C192.371 55.22 192.519 55.422 192.603 55.642C192.687 55.862 192.729 56.074 192.729 56.278C192.729 56.85 192.519 57.3 192.099 57.628C191.679 57.956 191.093 58.12 190.341 58.12ZM194.279 58V49.084H195.359V52.708C195.515 52.452 195.753 52.224 196.073 52.024C196.393 51.82 196.801 51.718 197.297 51.718C197.701 51.718 198.067 51.794 198.395 51.946C198.723 52.094 198.983 52.306 199.175 52.582C199.367 52.858 199.463 53.186 199.463 53.566V58H198.353V53.788C198.353 53.416 198.225 53.13 197.969 52.93C197.717 52.726 197.387 52.624 196.979 52.624C196.699 52.624 196.437 52.67 196.193 52.762C195.953 52.85 195.757 52.986 195.605 53.17C195.457 53.35 195.383 53.58 195.383 53.86V58H194.279ZM202.417 49.33V50.482H201.283V49.33H202.417ZM202.393 51.796V58H201.319V51.796H202.393ZM207.58 52.606H206.182V56.464C206.182 56.796 206.234 57 206.338 57.076C206.446 57.148 206.646 57.184 206.938 57.184H207.616V57.928C207.536 57.956 207.42 57.98 207.268 58C207.116 58.02 206.926 58.03 206.698 58.03C206.054 58.03 205.62 57.9 205.396 57.64C205.176 57.38 205.066 57 205.066 56.5V52.606H204.058V51.796H205.096L205.366 49.99H206.182V51.79H207.58V52.606ZM209.802 55.156C209.802 55.548 209.866 55.904 209.994 56.224C210.126 56.54 210.324 56.792 210.588 56.98C210.856 57.168 211.19 57.262 211.59 57.262C211.986 57.262 212.326 57.17 212.61 56.986C212.898 56.802 213.082 56.536 213.162 56.188H214.212C214.136 56.608 213.968 56.962 213.708 57.25C213.448 57.538 213.134 57.756 212.766 57.904C212.398 58.048 212.014 58.12 211.614 58.12C211.034 58.12 210.524 57.994 210.084 57.742C209.644 57.49 209.3 57.128 209.052 56.656C208.804 56.184 208.68 55.618 208.68 54.958C208.68 54.306 208.792 53.734 209.016 53.242C209.24 52.75 209.564 52.366 209.988 52.09C210.416 51.814 210.93 51.676 211.53 51.676C212.406 51.676 213.078 51.954 213.546 52.51C214.014 53.062 214.248 53.808 214.248 54.748V55.156H209.802ZM209.808 54.406H213.18C213.18 53.874 213.044 53.426 212.772 53.062C212.5 52.698 212.084 52.516 211.524 52.516C211.136 52.516 210.814 52.61 210.558 52.798C210.302 52.982 210.112 53.22 209.988 53.512C209.864 53.8 209.804 54.098 209.808 54.406ZM218.244 51.676C218.912 51.676 219.474 51.866 219.93 52.246C220.386 52.622 220.656 53.126 220.74 53.758H219.756C219.7 53.434 219.542 53.156 219.282 52.924C219.022 52.688 218.678 52.57 218.25 52.57C217.722 52.57 217.29 52.762 216.954 53.146C216.622 53.53 216.456 54.118 216.456 54.91C216.456 55.626 216.608 56.2 216.912 56.632C217.22 57.06 217.672 57.274 218.268 57.274C218.692 57.274 219.034 57.154 219.294 56.914C219.554 56.674 219.71 56.398 219.762 56.086H220.728C220.648 56.71 220.378 57.206 219.918 57.574C219.462 57.938 218.904 58.12 218.244 58.12C217.684 58.12 217.19 57.998 216.762 57.754C216.334 57.51 215.998 57.15 215.754 56.674C215.51 56.198 215.388 55.614 215.388 54.922C215.388 54.278 215.498 53.712 215.718 53.224C215.942 52.736 216.266 52.356 216.69 52.084C217.118 51.812 217.636 51.676 218.244 51.676ZM222.24 58V49.084H223.32V52.708C223.476 52.452 223.714 52.224 224.034 52.024C224.354 51.82 224.762 51.718 225.258 51.718C225.662 51.718 226.028 51.794 226.356 51.946C226.684 52.094 226.944 52.306 227.136 52.582C227.328 52.858 227.424 53.186 227.424 53.566V58H226.314V53.788C226.314 53.416 226.186 53.13 225.93 52.93C225.678 52.726 225.348 52.624 224.94 52.624C224.66 52.624 224.398 52.67 224.154 52.762C223.914 52.85 223.718 52.986 223.566 53.17C223.418 53.35 223.344 53.58 223.344 53.86V58H222.24ZM228.896 58V56.584H230.216V58H228.896ZM233.085 49.33V50.482H231.951V49.33H233.085ZM233.061 51.796V58H231.987V51.796H233.061ZM235.096 58V51.796H236.152V52.99C236.308 52.546 236.554 52.216 236.89 52C237.23 51.784 237.596 51.676 237.988 51.676C238.08 51.676 238.168 51.682 238.252 51.694C238.34 51.706 238.41 51.726 238.462 51.754V52.828C238.402 52.8 238.324 52.782 238.228 52.774C238.136 52.762 238.058 52.756 237.994 52.756C237.502 52.724 237.08 52.818 236.728 53.038C236.376 53.258 236.2 53.626 236.2 54.142V58H235.096Z" fill="#4D4D4D"/>
<path d="M1029 48H1044" stroke="#B6B6B6" stroke-width="3" stroke-linecap="square"/>
<path d="M1029 54H1044" stroke="#B6B6B6" stroke-width="3" stroke-linecap="square"/>
<path d="M1029 60H1044" stroke="#B6B6B6" stroke-width="3" stroke-linecap="square"/>
</g>
</g>
<defs>
<filter id="filter0_i_593_2" x="121" y="44" width="852" height="21" filterUnits="userSpaceOnUse" color-interpolation-filters="sRGB">
<feFlood flood-opacity="0" result="BackgroundImageFix"/>
<feBlend mode="normal" in="SourceGraphic" in2="BackgroundImageFix" result="shape"/>
<feColorMatrix in="SourceAlpha" type="matrix" values="0 0 0 0 0 0 0 0 0 0 0 0 0 0 0 0 0 0 127 0" result="hardAlpha"/>
<feOffset dy="1"/>
<feGaussianBlur stdDeviation="1"/>
<feComposite in2="hardAlpha" operator="arithmetic" k2="-1" k3="1"/>
<feColorMatrix type="matrix" values="0 0 0 0 0 0 0 0 0 0 0 0 0 0 0 0 0 0 0.15 0"/>
<feBlend mode="normal" in2="shape" result="effect1_innerShadow_593_2"/>
</filter>
<linearGradient id="paint0_linear_593_2" x1="550.143" y1="599.104" x2="550.143" y2="700.674" gradientUnits="userSpaceOnUse">
<stop stop-color="#76787B"/>
<stop offset="0.274" stop-color="#9E9FA2"/>
<stop offset="0.629" stop-color="#EFEFEF"/>
<stop offset="0.787" stop-color="#7C7E7D"/>
<stop offset="1" stop-color="#DFDFDF"/>
</linearGradient>
<clipPath id="clip0_593_2">
<rect width="1100" height="703.312" fill="white" transform="translate(0 0.57312)"/>
</clipPath>
<clipPath id="clip1_593_2">
<rect width="1100" height="703.312" fill="white" transform="translate(0 0.57312)"/>
</clipPath>
</defs>
</svg>
