<svg width="369" height="365" viewBox="0 0 369 365" fill="none" xmlns="http://www.w3.org/2000/svg">
<path opacity="0.3" fill-rule="evenodd" clip-rule="evenodd" d="M191.75 68C302.061 68 369 160.825 369 254.232C369 327.079 277.781 365 191.75 365C101.101 365 0 330.99 0 254.232C0 157.744 77.8006 68 191.75 68Z" fill="url(#paint0_linear)"/>
<path opacity="0.64" d="M183.5 325C254.469 325 312 312.464 312 297C312 281.536 254.469 269 183.5 269C112.531 269 55 281.536 55 297C55 312.464 112.531 325 183.5 325Z" fill="#083229"/>
<path d="M119.027 292.473C120.906 286.354 126.655 283.094 135.991 280.349C141.911 278.634 149.425 277.833 161.209 275.431C166.958 274.287 171 272 171 272V278.576C171 278.576 132.006 286.297 125.915 296.419C122.955 301.394 123.866 313.575 137.813 314.833C133.543 315.462 126.542 314.375 122.785 310.544C118.117 305.797 116.864 299.45 119.027 292.473Z" fill="#282323" stroke="black" stroke-width="4" stroke-miterlimit="10" stroke-linecap="round" stroke-linejoin="round"/>
<path d="M171 279C171 279 147.505 283.312 134.955 288.646C123.952 293.356 124.296 298.236 124.01 303.229C123.838 306.123 125.901 313.272 134.267 314.521C144.238 315.996 155.986 314.407 171 304.931C171 281.724 171 279 171 279Z" fill="#442C2A"/>
<path opacity="0.37" d="M124.01 303.085C124.239 298.98 124.067 294.932 129.798 291C129.568 292.446 129.511 293.833 129.454 295.279C129.282 298.228 136.33 294.412 144.697 295.626C153.407 296.956 158.565 307.017 171 300.252C171 301.697 171 303.201 171 304.762C155.986 314.418 144.238 315.979 134.267 314.534C125.901 313.32 123.838 305.976 124.01 303.085Z" fill="#442C2A"/>
<path d="M171 279C171 279 147.505 283.312 134.955 288.646C123.952 293.356 124.296 298.236 124.01 303.229C123.838 306.123 125.901 313.272 134.267 314.521C144.238 315.996 155.986 314.407 171 304.931C171 281.724 171 279 171 279Z" stroke="black" stroke-width="4" stroke-miterlimit="10" stroke-linecap="round" stroke-linejoin="round"/>
<path d="M149.997 292C148.195 293.078 148.632 303.562 153 305" stroke="black" stroke-width="4" stroke-miterlimit="10" stroke-linecap="round" stroke-linejoin="round"/>
<path d="M156.933 291C154.889 293.794 156.332 300.37 160 302" stroke="black" stroke-width="4" stroke-miterlimit="10" stroke-linecap="round" stroke-linejoin="round"/>
<path d="M162.933 289C160.889 291.794 162.332 298.37 166 300" stroke="black" stroke-width="4" stroke-miterlimit="10" stroke-linecap="round" stroke-linejoin="round"/>
<path d="M230.826 259.562C218.459 268.103 200.88 273 182.5 273C164.177 273 146.541 268.103 134.174 259.562C128.505 255.633 119 247.433 119 236.5C119 225.567 128.505 217.367 134.174 213.438C146.541 204.897 164.12 200 182.5 200C200.823 200 218.459 204.897 230.826 213.438C236.495 217.367 246 225.567 246 236.5C246 247.433 236.495 255.633 230.826 259.562Z" fill="#151E28"/>
<path d="M287.908 245.75C287.679 246.887 287.449 247.967 287.104 249.103C278.144 281.445 234.949 306 182.966 306C130.868 306 87.558 281.331 78.7697 248.876C78.5399 247.966 78.3102 247.057 78.1379 246.148C77.9081 244.442 77.9655 242.737 78.3102 241.032C80.4354 231.483 92.1532 225.969 104.503 228.698C112.602 230.46 118.92 235.405 121.735 241.259C122.022 242.51 122.481 243.76 122.998 244.954C125.985 251.775 131.959 256.89 135.98 259.732C147.985 268.258 165.159 273.147 182.966 273.147C200.829 273.147 217.947 268.258 229.952 259.732C234.03 256.834 240.061 251.661 242.99 244.84C243.45 243.76 243.852 242.567 244.139 241.43C246.896 235.519 253.272 230.574 261.429 228.755C273.778 226.026 285.496 231.597 287.621 241.089C288.023 242.567 288.081 244.158 287.908 245.75Z" fill="#2A3749"/>
<path opacity="0.67" d="M287.621 240.799C287.564 240.514 287.506 240.285 287.391 240C287.219 240.913 286.989 241.884 286.702 242.798C277.857 275.284 234.606 299.948 182.683 299.948C130.587 299.948 87.2788 275.17 78.4909 242.569C78.376 242.227 78.3186 241.884 78.2037 241.484C77.9739 242.969 77.9165 244.453 78.1463 245.881C78.3186 246.794 78.5483 247.708 78.7781 248.621C87.566 281.221 130.874 306 182.97 306C234.951 306 278.144 281.336 287.104 248.849C287.391 247.765 287.679 246.623 287.908 245.481C288.081 243.997 288.023 242.398 287.621 240.799Z" fill="#151E28"/>
<path d="M287.908 245.75C287.679 246.887 287.449 247.967 287.104 249.103C278.144 281.445 234.949 306 182.966 306C130.868 306 87.558 281.331 78.7697 248.876C78.5399 247.966 78.3102 247.057 78.1379 246.148C77.9081 244.442 77.9655 242.737 78.3102 241.032C80.4354 231.483 92.1532 225.969 104.503 228.698C112.602 230.46 118.92 235.405 121.735 241.259C122.022 242.51 122.481 243.76 122.998 244.954C125.985 251.775 131.959 256.89 135.98 259.732C147.985 268.258 165.159 273.147 182.966 273.147C200.829 273.147 217.947 268.258 229.952 259.732C234.03 256.834 240.061 251.661 242.99 244.84C243.45 243.76 243.852 242.567 244.139 241.43C246.896 235.519 253.272 230.574 261.429 228.755C273.778 226.026 285.496 231.597 287.621 241.089C288.023 242.567 288.081 244.158 287.908 245.75Z" stroke="black" stroke-width="4" stroke-miterlimit="10" stroke-linecap="round" stroke-linejoin="round"/>
<path d="M183.5 255C211.943 255 235 247.165 235 237.5C235 227.835 211.943 220 183.5 220C155.057 220 132 227.835 132 237.5C132 247.165 155.057 255 183.5 255Z" fill="#9B2121"/>
<path d="M183.5 255C211.943 255 235 247.165 235 237.5C235 227.835 211.943 220 183.5 220C155.057 220 132 227.835 132 237.5C132 247.165 155.057 255 183.5 255Z" fill="#1BBC9B" stroke="black" stroke-width="4" stroke-miterlimit="10" stroke-linecap="round" stroke-linejoin="round"/>
<path d="M241.805 200H123.103C114.011 200 106.979 192.051 108.122 183.016L113.383 140.986C114.869 128.978 125.047 120 137.169 120H227.853C239.918 120 250.096 128.978 251.639 140.986L256.9 183.016C257.929 192.051 250.896 200 241.805 200Z" fill="#F1534D"/>
<path d="M241.805 200H123.103C114.011 200 106.979 192.051 108.122 183.016L113.383 140.986C114.869 128.978 125.047 120 137.169 120H227.853C239.918 120 250.096 128.978 251.639 140.986L256.9 183.016C257.929 192.051 250.896 200 241.805 200Z" stroke="black" stroke-width="4" stroke-miterlimit="10" stroke-linecap="round" stroke-linejoin="round"/>
<path d="M136 155L135 170" stroke="black" stroke-width="4" stroke-miterlimit="10" stroke-linecap="round" stroke-linejoin="round"/>
<path d="M230 155L231 170" stroke="black" stroke-width="4" stroke-miterlimit="10" stroke-linecap="round" stroke-linejoin="round"/>
<path d="M241.805 200H123.103C114.011 200 106.979 192.051 108.122 183.016L113.383 140.986C114.869 128.978 125.047 120 137.169 120H227.853C239.918 120 250.096 128.978 251.639 140.986L256.9 183.016C257.929 192.051 250.896 200 241.805 200Z" fill="#1BBC9B"/>
<g opacity="0.24">
<path opacity="0.24" d="M113.674 145.146C115.162 133.127 125.349 124.141 137.483 124.141H228.255C240.331 124.141 250.519 133.127 252.064 145.146L257.272 186.869C257.444 185.552 257.501 184.179 257.329 182.748L252.064 140.682C250.576 128.663 240.388 119.677 228.255 119.677H137.483C125.406 119.677 115.219 128.663 113.674 140.682L108.408 182.748C108.236 184.122 108.236 185.495 108.465 186.869L113.674 145.146Z" fill="#9B2121"/>
<path opacity="0.24" d="M142.748 124.141C142.748 124.141 149.788 125.4 150.36 129.292C150.818 132.44 150.761 134.5 151.963 135.759C153.164 137.019 155.969 139.594 161.635 139.594C158.487 136.446 158.43 125.4 157.571 125.4C156.77 125.4 154.71 119.906 154.71 119.906L151.963 118.647C152.02 118.647 141.889 119.906 142.748 124.141Z" fill="#9B2121"/>
<path opacity="0.24" d="M217.953 124.141C217.953 124.141 210.913 125.4 210.341 129.292C209.883 132.44 209.94 134.5 208.738 135.759C207.536 136.961 204.732 139.594 199.066 139.594C202.214 136.446 202.271 125.4 203.129 125.4C203.931 125.4 205.991 119.906 205.991 119.906L208.738 118.647C208.681 118.647 218.811 119.906 217.953 124.141Z" fill="#9B2121"/>
</g>
<path d="M241.805 200H123.103C114.011 200 106.979 192.051 108.122 183.016L113.383 140.986C114.869 128.978 125.047 120 137.169 120H227.853C239.918 120 250.096 128.978 251.639 140.986L256.9 183.016C257.929 192.051 250.896 200 241.805 200Z" stroke="black" stroke-width="4" stroke-miterlimit="10" stroke-linecap="round" stroke-linejoin="round"/>
<path d="M136 155L135 170" stroke="black" stroke-width="4" stroke-miterlimit="10" stroke-linecap="round" stroke-linejoin="round"/>
<path d="M230 155L231 170" stroke="black" stroke-width="4" stroke-miterlimit="10" stroke-linecap="round" stroke-linejoin="round"/>
<path d="M167.315 95.955L148.611 95L139.856 95.955C139.856 95.955 134 100.281 134 101.461C134 102.64 134.569 112.247 134.569 112.247C134.569 112.247 148.383 114.101 149.862 115.506C151.34 116.91 160.095 125 160.095 125L168.566 121.742L173 110.056L167.315 95.955Z" fill="#083229"/>
<path d="M164 88H142.632C134.029 88 127 95.2206 127 104.188C127 113.097 133.973 120.376 142.632 120.376H145.444C149.998 120.376 153.653 124.161 153.653 128.878V129.751C153.653 135.4 158.096 140 163.55 140V129.518C163.663 129.518 163.775 129.635 163.775 129.751V128.878C163.775 118.396 155.565 109.895 145.444 109.895H142.632C139.596 109.895 137.122 107.333 137.122 104.188C137.122 101.044 139.596 98.4815 142.632 98.4815H164V88Z" fill="#F1534D"/>
<path d="M162.65 122.356C160.064 115.136 153.316 109.895 145.444 109.895H142.632C139.596 109.895 137.122 107.333 137.122 104.188C137.122 101.044 139.596 98.4815 142.632 98.4815H164V88H142.632C134.029 88 127 95.2206 127 104.188C127 113.097 133.973 120.376 142.632 120.376H145.444C149.998 120.376 153.654 124.161 153.654 128.878V129.751C153.654 135.4 158.096 140 163.55 140" fill="#1BBC9B"/>
<path d="M162.65 122.356C160.064 115.136 153.316 109.895 145.444 109.895H142.632C139.596 109.895 137.122 107.333 137.122 104.188C137.122 101.044 139.596 98.4815 142.632 98.4815H164V88H142.632C134.029 88 127 95.2206 127 104.188C127 113.097 133.973 120.376 142.632 120.376H145.444C149.998 120.376 153.654 124.161 153.654 128.878V129.751C153.654 135.4 158.096 140 163.55 140" stroke="black" stroke-width="4" stroke-miterlimit="10" stroke-linecap="round" stroke-linejoin="round"/>
<path d="M192.685 95.955L211.389 95L220.144 95.955C220.144 95.955 226 100.281 226 101.461C226 102.64 225.431 112.247 225.431 112.247C225.431 112.247 211.617 114.101 210.138 115.506C208.66 116.966 199.905 125 199.905 125L191.434 121.742L187 110.056L192.685 95.955Z" fill="#083229"/>
<path d="M196 88H217.368C225.971 88 233 95.2206 233 104.188C233 113.097 226.027 120.376 217.368 120.376H214.556C210.002 120.376 206.347 124.161 206.347 128.878V129.751C206.347 135.4 201.904 140 196.45 140V129.518C196.337 129.518 196.225 129.635 196.225 129.751V128.878C196.225 118.396 204.435 109.895 214.556 109.895H217.368C220.404 109.895 222.878 107.333 222.878 104.188C222.878 101.044 220.404 98.4815 217.368 98.4815H196V88Z" fill="#F1534D"/>
<path d="M197.35 122.356C199.936 115.136 206.684 109.895 214.556 109.895H217.368C220.404 109.895 222.878 107.333 222.878 104.188C222.878 101.044 220.404 98.4815 217.368 98.4815H196V88H217.368C225.971 88 233 95.2206 233 104.188C233 113.097 226.027 120.376 217.368 120.376H214.556C210.002 120.376 206.347 124.161 206.347 128.878V129.751C206.347 135.4 201.904 140 196.45 140" fill="#1BBC9B"/>
<path d="M197.35 122.356C199.936 115.136 206.684 109.895 214.556 109.895H217.368C220.404 109.895 222.878 107.333 222.878 104.188C222.878 101.044 220.404 98.4815 217.368 98.4815H196V88H217.368C225.971 88 233 95.2206 233 104.188C233 113.097 226.027 120.376 217.368 120.376H214.556C210.002 120.376 206.347 124.161 206.347 128.878V129.751C206.347 135.4 201.904 140 196.45 140" stroke="black" stroke-width="4" stroke-miterlimit="10" stroke-linecap="round" stroke-linejoin="round"/>
<path d="M181 131C193.15 131 203 121.15 203 109C203 96.8498 193.15 87 181 87C168.85 87 159 96.8498 159 109C159 121.15 168.85 131 181 131Z" fill="#F46262"/>
<path d="M181 131C193.15 131 203 121.15 203 109C203 96.8498 193.15 87 181 87C168.85 87 159 96.8498 159 109C159 121.15 168.85 131 181 131Z" fill="#083229" stroke="black" stroke-width="4" stroke-miterlimit="10" stroke-linecap="round" stroke-linejoin="round"/>
<path d="M180.972 122C173.809 122 168 116.178 168 109V99.2783C168 97.4696 169.466 96 171.271 96H190.729C192.534 96 194 97.4696 194 99.2783V109C193.944 116.178 188.134 122 180.972 122Z" fill="#FFC897"/>
<path d="M190.778 96H171.278C169.47 96 168 97.6 168 99.5429V107.6C172.07 109.143 176.422 110 181 110C185.578 110 189.93 109.143 194 107.6V99.5429C194 97.6 192.53 96 190.778 96Z" fill="#E5A973"/>
<path d="M180.972 122C173.809 122 168 116.178 168 109V99.2783C168 97.4696 169.466 96 171.271 96H190.729C192.534 96 194 97.4696 194 99.2783V109C193.944 116.178 188.134 122 180.972 122Z" stroke="black" stroke-width="4" stroke-miterlimit="10" stroke-linecap="round" stroke-linejoin="round"/>
<path d="M195 270H183V309H195V270Z" fill="#607691"/>
<path d="M195 270H183V309H195V270Z" stroke="black" stroke-width="4" stroke-miterlimit="10" stroke-linecap="round" stroke-linejoin="round"/>
<path d="M123 245C122.591 243.708 122.273 242.415 122 241C122.5 242.354 122.818 243.646 123 245Z" stroke="black" stroke-width="4" stroke-miterlimit="10" stroke-linecap="round" stroke-linejoin="round"/>
<path d="M243 244C243.2 242.95 243.55 241.95 244 241C243.75 242.05 243.4 243.05 243 244Z" stroke="black" stroke-width="4" stroke-miterlimit="10" stroke-linecap="round" stroke-linejoin="round"/>
<path d="M242.098 242H122.902C118.671 242 115.07 238.819 114.498 234.539L107.066 175.659C106.437 170.569 110.382 166 115.47 166H249.53C254.618 166 258.563 170.511 257.934 175.659L250.502 234.539C249.93 238.761 246.329 242 242.098 242Z" fill="#FAFAFA"/>
<path opacity="0.21" d="M250.451 230.865C249.936 235.135 246.334 238.308 242.046 238.308H122.897C118.666 238.308 115.064 235.135 114.492 230.865L107.174 173C107.002 173.923 106.945 174.846 107.059 175.827L114.492 234.558C115.007 238.827 118.609 242 122.897 242H242.103C246.334 242 249.936 238.827 250.508 234.558L257.941 175.827C258.055 174.846 257.998 173.923 257.826 173L250.451 230.865Z" fill="#7E7E7E"/>
<path opacity="0.21" d="M107.123 177C107.81 172.774 111.243 169.418 115.419 169.418H249.581C253.815 169.418 257.19 172.712 257.877 177L257.934 176.379C258.563 170.91 254.616 166 249.524 166H115.476C110.384 166 106.437 170.847 107.066 176.379L107.123 177Z" fill="#7E7E7E"/>
<path d="M242.098 242H122.902C118.671 242 115.07 238.819 114.498 234.539L107.066 175.659C106.437 170.569 110.382 166 115.47 166H249.53C254.618 166 258.563 170.511 257.934 175.659L250.502 234.539C249.93 238.761 246.329 242 242.098 242Z" stroke="black" stroke-width="4" stroke-miterlimit="10" stroke-linecap="round" stroke-linejoin="round"/>
<path d="M247.953 292.473C246.039 286.354 240.181 283.094 230.669 280.349C224.638 278.634 216.982 277.833 204.976 275.431C199.118 274.287 195 272 195 272V278.576C195 278.576 234.729 286.297 240.935 296.419C243.951 301.394 243.023 313.575 228.813 314.833C233.163 315.462 240.297 314.375 244.125 310.544C248.881 305.797 250.157 299.45 247.953 292.473Z" fill="#282323" stroke="black" stroke-width="4" stroke-miterlimit="10" stroke-linecap="round" stroke-linejoin="round"/>
<path d="M195 279C195 279 218.495 283.312 231.045 288.646C242.048 293.356 241.704 298.236 241.99 303.229C242.162 306.123 240.099 313.272 231.733 314.521C221.762 315.996 210.014 314.407 195 304.931C195 281.724 195 279 195 279Z" fill="#442C2A"/>
<path opacity="0.37" d="M241.99 303.085C241.761 298.98 241.933 294.932 236.202 291C236.431 292.446 236.489 293.833 236.546 295.279C236.718 298.228 234.655 305.514 226.289 306.786C217.578 308.116 207.435 307.017 195 300.252C195 301.697 195 303.201 195 304.762C210.014 314.418 221.761 315.979 231.733 314.534C240.156 313.32 242.162 305.976 241.99 303.085Z" fill="#442C2A"/>
<path d="M195 279C195 279 218.495 283.312 231.045 288.646C242.048 293.356 241.704 298.236 241.99 303.229C242.162 306.123 240.099 313.272 231.733 314.521C221.762 315.996 210.014 314.407 195 304.931C195 281.724 195 279 195 279Z" stroke="black" stroke-width="4" stroke-miterlimit="10" stroke-linecap="round" stroke-linejoin="round"/>
<path d="M217.003 292C218.805 293.078 218.368 303.562 214 305" stroke="black" stroke-width="4" stroke-miterlimit="10" stroke-linecap="round" stroke-linejoin="round"/>
<path d="M210.067 291C212.111 293.794 210.668 300.37 207 302" stroke="black" stroke-width="4" stroke-miterlimit="10" stroke-linecap="round" stroke-linejoin="round"/>
<path d="M203.067 289C205.111 291.794 203.668 298.37 200 300" stroke="black" stroke-width="4" stroke-miterlimit="10" stroke-linecap="round" stroke-linejoin="round"/>
<path d="M161 134V164" stroke="black" stroke-width="6" stroke-miterlimit="10" stroke-linecap="round" stroke-linejoin="round"/>
<path d="M200 134V155" stroke="black" stroke-width="6" stroke-miterlimit="10" stroke-linecap="round" stroke-linejoin="round"/>
<path d="M199.5 162C201.985 162 204 159.761 204 157C204 154.239 201.985 152 199.5 152C197.015 152 195 154.239 195 157C195 159.761 197.015 162 199.5 162Z" fill="black"/>
<path d="M200 158C201.105 158 202 157.105 202 156C202 154.895 201.105 154 200 154C198.895 154 198 154.895 198 156C198 157.105 198.895 158 200 158Z" fill="#7E7E7E"/>
<path d="M181 105C161.146 105 145 88.8621 145 68.8899V27H217V68.8899C217 88.8048 200.911 105 181 105Z" fill="#FFC897"/>
<path d="M181 100.032C161.146 100.032 145 83.929 145 64V68.968C145 88.8398 161.089 105 181 105C200.854 105 217 88.8969 217 68.968V64C217 83.8719 200.911 100.032 181 100.032Z" fill="#E5A973"/>
<path d="M182.891 80.2368C212.558 78.9493 217.673 67 217.673 67C217.673 67 223.811 117.006 182.891 117.986C141.971 118.967 144.017 67 144.017 67C144.017 67 156.293 81.3912 182.891 80.2368Z" fill="#231A17"/>
<path d="M181 119C161.146 119 145 99.9655 145 76.4087V27H217V76.4087C217 99.898 200.911 119 181 119Z" stroke="black" stroke-width="4" stroke-miterlimit="10" stroke-linecap="round" stroke-linejoin="round"/>
<path d="M217 32.0572C216.887 30.1064 216.774 28.0983 216.717 26.1475C192.981 27.295 169.132 27.1229 145.452 25C145.283 27.2376 145.17 29.4753 145 31.713C146.074 32.6883 147.204 33.7211 148.278 34.6965C149.182 35.1555 150.369 35.7866 151.443 36.3604C156.19 38.8849 162.802 42.0979 169.132 43.3602C171.449 43.8192 173.879 44.0487 176.366 43.9913C187.047 43.8766 196.033 39.5734 199.819 37.7948C200.385 37.5079 200.837 37.2784 201.119 37.221C201.345 37.1063 201.571 37.0489 201.911 37.0489C202.589 37.0489 203.38 37.221 204.341 37.3931C205.584 37.68 207.053 37.9669 208.692 37.8521C210.557 37.7374 212.253 37.1636 213.892 36.0735C214.852 34.6965 215.926 33.3769 217 32.0572Z" fill="#E5A973"/>
<path d="M199.845 9.91388C199.845 9.91388 171.05 -9.30977 147.215 12.1653C142.768 16.1486 141 21.8637 141 27.117V54.9423H144.991V34.7372C144.991 33.2363 146.018 32.0817 147.272 32.0817C149.325 32.0817 160.444 38.0855 169.852 39.7596C184.051 42.242 196.994 35.6032 199.788 34.6218C204.578 32.8899 208.455 38.8937 214.5 32.1394H214.728C215.982 32.1394 217.009 33.3517 217.009 34.795V55H221V27.2902C220.886 20.4782 213.131 3.39054 199.845 9.91388Z" fill="#231A17"/>
<g opacity="0.34">
<path opacity="0.34" d="M144.98 50.7106H140.974V54.488H144.98V50.7106Z" fill="#231A17"/>
<path opacity="0.34" d="M221.215 50.7106H217.209V54.488H221.215V50.7106Z" fill="#231A17"/>
</g>
<path d="M199.845 9.91388C199.845 9.91388 171.05 -9.30977 147.215 12.1653C142.768 16.1486 141 21.8637 141 27.117V54.9423H144.991V34.7372C144.991 33.2363 146.018 32.0817 147.272 32.0817C149.325 32.0817 160.444 38.0855 169.852 39.7596C184.051 42.242 196.994 35.6032 199.788 34.6218C204.578 32.8899 208.455 38.8937 214.5 32.1394H214.728C215.982 32.1394 217.009 33.3517 217.009 34.795V55H221V27.2902C220.886 20.4782 213.131 3.39054 199.845 9.91388Z" stroke="black" stroke-width="4" stroke-miterlimit="10" stroke-linecap="round" stroke-linejoin="round"/>
<path d="M176 28.9211C176 28.9211 144.651 30.9853 138 14" stroke="black" stroke-width="4" stroke-miterlimit="10" stroke-linecap="round" stroke-linejoin="round"/>
<path d="M180 24C180 24 149.854 22.1495 142 6" stroke="black" stroke-width="4" stroke-miterlimit="10" stroke-linecap="round" stroke-linejoin="round"/>
<path d="M217 50V69C220.889 69 224 64.7713 224 59.5C224 54.2287 220.889 50 217 50Z" fill="#FFC897"/>
<path d="M217 51V68C219.377 66.4227 221 63.2096 221 59.4708C221 55.7904 219.377 52.5773 217 51Z" fill="#E5A973"/>
<path d="M217 50V69C220.889 69 224 64.7713 224 59.5C224 54.2287 220.889 50 217 50Z" stroke="black" stroke-width="4" stroke-miterlimit="10" stroke-linecap="round" stroke-linejoin="round"/>
<path d="M145 50V69C141.112 69 138.001 64.7713 138.001 59.5C137.945 54.2287 141.112 50 145 50Z" fill="#FFC897"/>
<path d="M145 51C143.23 52.6571 142 55.6286 142 59C142 62.3714 143.18 65.3429 145 67V51Z" fill="#E5A973"/>
<path d="M145 50V69C141.112 69 138.001 64.7713 138.001 59.5C137.945 54.2287 141.112 50 145 50Z" stroke="black" stroke-width="4" stroke-miterlimit="10" stroke-linecap="round" stroke-linejoin="round"/>
<path d="M179.545 65L177 73.1118C177 74 179.97 73.2895 183 74" stroke="black" stroke-width="4" stroke-miterlimit="10" stroke-linecap="round" stroke-linejoin="round"/>
<path d="M168.5 59C169.881 59 171 57.8806 171 56.5C171 55.1194 169.881 54 168.5 54C167.119 54 166 55.1194 166 56.5C166 57.8806 167.119 59 168.5 59Z" stroke="black" stroke-width="2" stroke-miterlimit="10" stroke-linecap="round" stroke-linejoin="round"/>
<path d="M168.5 59C169.881 59 171 57.8806 171 56.5C171 55.1194 169.881 54 168.5 54C167.119 54 166 55.1194 166 56.5C166 57.8806 167.119 59 168.5 59Z" fill="black"/>
<path d="M160 51C161.142 49.2143 163.808 48 166.962 48C169.464 48 171.64 48.7857 173 50" stroke="black" stroke-width="3" stroke-miterlimit="10" stroke-linecap="round" stroke-linejoin="round"/>
<path d="M194.5 59C195.881 59 197 57.8806 197 56.5C197 55.1194 195.881 54 194.5 54C193.119 54 192 55.1194 192 56.5C192 57.8806 193.119 59 194.5 59Z" stroke="black" stroke-width="2" stroke-miterlimit="10" stroke-linecap="round" stroke-linejoin="round"/>
<path d="M194.5 59C195.881 59 197 57.8806 197 56.5C197 55.1194 195.881 54 194.5 54C193.119 54 192 55.1194 192 56.5C192 57.8806 193.119 59 194.5 59Z" fill="black"/>
<path d="M203 51C201.77 49.2143 198.9 48 195.502 48C192.808 48 190.464 48.7857 189 50" stroke="black" stroke-width="3" stroke-miterlimit="10" stroke-linecap="round" stroke-linejoin="round"/>
<path d="M190 87C188.5 91 184.5 92.5 179 91" stroke="white" stroke-width="2" stroke-linecap="round" stroke-linejoin="round"/>
<mask id="path-84-inside-1" fill="white">
<path d="M187.512 211.472C191.144 210.499 194.299 208.238 196.388 205.111C198.477 201.985 199.358 198.205 198.867 194.477C198.377 190.749 196.547 187.326 193.72 184.846C190.893 182.367 187.26 181 183.5 181C179.74 181 176.107 182.367 173.28 184.846C170.453 187.326 168.623 190.749 168.133 194.477C167.642 198.205 168.523 201.985 170.612 205.111C172.701 208.238 175.856 210.499 179.488 211.472L181.314 204.656C179.336 204.126 177.617 202.895 176.479 201.191C175.341 199.488 174.861 197.429 175.128 195.398C175.395 193.367 176.392 191.502 177.932 190.151C179.473 188.801 181.451 188.056 183.5 188.056C185.549 188.056 187.527 188.801 189.068 190.151C190.608 191.502 191.605 193.367 191.872 195.398C192.139 197.429 191.659 199.488 190.521 201.191C189.383 202.895 187.664 204.126 185.686 204.656L187.512 211.472Z"/>
</mask>
<path d="M187.512 211.472C191.144 210.499 194.299 208.238 196.388 205.111C198.477 201.985 199.358 198.205 198.867 194.477C198.377 190.749 196.547 187.326 193.72 184.846C190.893 182.367 187.26 181 183.5 181C179.74 181 176.107 182.367 173.28 184.846C170.453 187.326 168.623 190.749 168.133 194.477C167.642 198.205 168.523 201.985 170.612 205.111C172.701 208.238 175.856 210.499 179.488 211.472L181.314 204.656C179.336 204.126 177.617 202.895 176.479 201.191C175.341 199.488 174.861 197.429 175.128 195.398C175.395 193.367 176.392 191.502 177.932 190.151C179.473 188.801 181.451 188.056 183.5 188.056C185.549 188.056 187.527 188.801 189.068 190.151C190.608 191.502 191.605 193.367 191.872 195.398C192.139 197.429 191.659 199.488 190.521 201.191C189.383 202.895 187.664 204.126 185.686 204.656L187.512 211.472Z" fill="#083229" stroke="#083229" stroke-width="2" mask="url(#path-84-inside-1)"/>
<path d="M186.906 200.265C186.561 200.863 186.064 201.359 185.466 201.705C184.869 202.05 184.19 202.231 183.5 202.231C182.81 202.231 182.131 202.05 181.534 201.705C180.936 201.359 180.439 200.863 180.094 200.265L181.31 199.563C181.532 199.947 181.851 200.266 182.236 200.488C182.62 200.71 183.056 200.827 183.5 200.827C183.944 200.827 184.38 200.71 184.764 200.488C185.149 200.266 185.468 199.947 185.69 199.563L186.906 200.265Z" fill="#1BBC9B"/>
<path d="M165.168 223.952C165.168 223.984 165.189 224 165.232 224H166.272C166.325 224 166.36 223.973 166.376 223.92L166.8 222.552C166.816 222.493 166.851 222.464 166.904 222.464H168.784C168.837 222.464 168.872 222.491 168.888 222.544L169.312 223.928C169.328 223.976 169.363 224 169.416 224H170.464C170.501 224 170.52 223.984 170.52 223.952L168.912 218.736C168.848 218.528 168.728 218.397 168.552 218.344C168.381 218.291 168.144 218.264 167.84 218.264C167.547 218.264 167.315 218.291 167.144 218.344C166.973 218.397 166.856 218.528 166.792 218.736L165.168 223.952ZM168.496 221.272C168.496 221.283 168.496 221.291 168.496 221.296C168.501 221.301 168.504 221.307 168.504 221.312C168.504 221.349 168.483 221.368 168.44 221.368H167.248C167.205 221.368 167.184 221.349 167.184 221.312C167.184 221.307 167.184 221.301 167.184 221.296C167.189 221.291 167.192 221.283 167.192 221.272L167.752 219.448C167.784 219.352 167.813 219.304 167.84 219.304C167.867 219.304 167.885 219.315 167.896 219.336C167.907 219.352 167.92 219.389 167.936 219.448L168.496 221.272ZM173.416 221.616C173.549 221.616 173.664 221.629 173.76 221.656C173.861 221.677 173.938 221.717 173.992 221.776C174.056 221.851 174.093 221.936 174.104 222.032C174.114 222.123 174.12 222.211 174.12 222.296C174.12 222.355 174.117 222.411 174.112 222.464C174.106 222.517 174.09 222.573 174.064 222.632C174.037 222.696 173.994 222.768 173.936 222.848C173.877 222.923 173.808 222.96 173.728 222.96H171.152C171.098 222.96 171.072 222.987 171.072 223.04V223.92C171.072 223.973 171.098 224 171.152 224H174.064C174.181 224 174.304 223.965 174.432 223.896C174.565 223.821 174.677 223.747 174.768 223.672C175.066 223.411 175.237 223.037 175.28 222.552C175.29 222.509 175.296 222.464 175.296 222.416C175.296 222.363 175.296 222.307 175.296 222.248C175.296 222.125 175.288 221.997 175.272 221.864C175.256 221.731 175.226 221.603 175.184 221.48C175.146 221.357 175.096 221.243 175.032 221.136C174.973 221.029 174.898 220.939 174.808 220.864C174.653 220.736 174.485 220.651 174.304 220.608C174.122 220.56 173.949 220.536 173.784 220.536H172.888C172.765 220.536 172.65 220.531 172.544 220.52C172.442 220.509 172.362 220.475 172.304 220.416C172.24 220.347 172.202 220.267 172.192 220.176C172.181 220.085 172.176 219.997 172.176 219.912C172.176 219.859 172.178 219.805 172.184 219.752C172.189 219.699 172.205 219.645 172.232 219.592C172.258 219.533 172.301 219.472 172.36 219.408C172.424 219.339 172.493 219.304 172.568 219.304H174.88C174.933 219.304 174.96 219.277 174.96 219.224V218.344C174.96 218.291 174.933 218.264 174.88 218.264H172.232C172.104 218.264 171.973 218.299 171.84 218.368C171.706 218.437 171.594 218.509 171.504 218.584C171.194 218.84 171.021 219.2 170.984 219.664C170.973 219.712 170.968 219.76 170.968 219.808C170.968 219.856 170.968 219.907 170.968 219.96C170.968 220.083 170.976 220.208 170.992 220.336C171.013 220.459 171.042 220.581 171.08 220.704C171.122 220.821 171.173 220.933 171.232 221.04C171.296 221.141 171.373 221.229 171.464 221.304C171.618 221.427 171.789 221.509 171.976 221.552C172.168 221.595 172.346 221.616 172.512 221.616H173.416ZM175.891 223.92C175.891 223.973 175.917 224 175.971 224H176.971C177.024 224 177.051 223.973 177.051 223.92V221.72C177.051 221.667 177.077 221.64 177.131 221.64H179.027C179.08 221.64 179.107 221.667 179.107 221.72V223.92C179.107 223.973 179.133 224 179.187 224H180.187C180.24 224 180.266 223.973 180.266 223.92V218.344C180.266 218.291 180.24 218.264 180.187 218.264H179.187C179.133 218.264 179.107 218.291 179.107 218.344V220.52C179.107 220.573 179.08 220.6 179.027 220.6H177.131C177.077 220.6 177.051 220.573 177.051 220.52V218.344C177.051 218.291 177.024 218.264 176.971 218.264H175.971C175.917 218.264 175.891 218.291 175.891 218.344V223.92ZM180.93 218.344V223.92C180.93 223.973 180.956 224 181.01 224H182.01C182.063 224 182.09 223.973 182.09 223.92V218.344C182.09 218.291 182.063 218.264 182.01 218.264H181.01C180.956 218.264 180.93 218.291 180.93 218.344Z" fill="#083229"/>
<path d="M185.206 219.384C185.206 219.331 185.232 219.304 185.286 219.304H186.59C186.643 219.304 186.67 219.277 186.67 219.224V218.344C186.67 218.291 186.643 218.264 186.59 218.264H182.662C182.608 218.264 182.582 218.291 182.582 218.344V219.224C182.582 219.277 182.608 219.304 182.662 219.304H183.966C184.019 219.304 184.046 219.331 184.046 219.384V223.92C184.046 223.973 184.072 224 184.126 224H185.126C185.179 224 185.206 223.973 185.206 223.92V219.384ZM187.14 223.16C187.14 223.261 187.162 223.363 187.204 223.464C187.252 223.56 187.314 223.648 187.388 223.728C187.463 223.808 187.548 223.875 187.644 223.928C187.74 223.976 187.836 224 187.932 224H191.028C191.082 224 191.108 223.973 191.108 223.92V223.04C191.108 222.987 191.082 222.96 191.028 222.96H188.38C188.327 222.96 188.3 222.933 188.3 222.88V221.72C188.3 221.667 188.327 221.64 188.38 221.64H190.836C190.89 221.64 190.916 221.613 190.916 221.56V220.64C190.916 220.587 190.89 220.56 190.836 220.56H188.38C188.327 220.56 188.3 220.533 188.3 220.48V219.392C188.3 219.333 188.327 219.304 188.38 219.304H191.028C191.082 219.304 191.108 219.277 191.108 219.224V218.344C191.108 218.291 191.074 218.264 191.004 218.264H188.292C187.919 218.264 187.634 218.379 187.436 218.608C187.239 218.832 187.14 219.125 187.14 219.488V223.16ZM191.718 222.288C191.718 222.432 191.731 222.555 191.758 222.656C191.784 222.752 191.811 222.829 191.838 222.888C191.939 223.123 192.07 223.325 192.23 223.496C192.39 223.661 192.571 223.781 192.774 223.856C192.864 223.893 192.971 223.928 193.094 223.96C193.216 223.987 193.358 224 193.518 224H195.566C195.619 224 195.646 223.973 195.646 223.92V223.04C195.646 222.987 195.619 222.96 195.566 222.96H193.493C193.307 222.944 193.16 222.883 193.054 222.776C192.952 222.664 192.894 222.515 192.878 222.328V220.304C192.878 220.027 192.928 219.803 193.03 219.632C193.131 219.456 193.286 219.347 193.493 219.304H195.566C195.619 219.304 195.646 219.277 195.646 219.224V218.344C195.646 218.291 195.619 218.264 195.566 218.264H193.446C193.184 218.264 192.939 218.317 192.71 218.424C192.48 218.531 192.283 218.68 192.118 218.872C192.059 218.941 192 219.019 191.942 219.104C191.888 219.184 191.846 219.283 191.814 219.4C191.75 219.603 191.718 219.819 191.718 220.048V222.288ZM196.305 223.92C196.305 223.973 196.331 224 196.385 224H197.385C197.438 224 197.465 223.973 197.465 223.92V221.72C197.465 221.667 197.491 221.64 197.545 221.64H199.441C199.494 221.64 199.521 221.667 199.521 221.72V223.92C199.521 223.973 199.547 224 199.601 224H200.601C200.654 224 200.681 223.973 200.681 223.92V218.344C200.681 218.291 200.654 218.264 200.601 218.264H199.601C199.547 218.264 199.521 218.291 199.521 218.344V220.52C199.521 220.573 199.494 220.6 199.441 220.6H197.545C197.491 220.6 197.465 220.573 197.465 220.52V218.344C197.465 218.291 197.438 218.264 197.385 218.264H196.385C196.331 218.264 196.305 218.291 196.305 218.344V223.92Z" fill="#1BBC9B"/>
<defs>
<linearGradient id="paint0_linear" x1="184.5" y1="68" x2="185" y2="285" gradientUnits="userSpaceOnUse">
<stop stop-color="#083229"/>
<stop offset="1" stop-color="#083229" stop-opacity="0"/>
</linearGradient>
</defs>
</svg>
