<svg width="154" height="23" viewBox="0 0 154 23" fill="none" xmlns="http://www.w3.org/2000/svg">
<path d="M0.672 22.808C0.672 22.936 0.757333 23 0.928 23H5.088C5.30133 23 5.44 22.8933 5.504 22.68L7.2 17.208C7.264 16.9733 7.40267 16.856 7.616 16.856H15.136C15.3493 16.856 15.488 16.9627 15.552 17.176L17.248 22.712C17.312 22.904 17.4507 23 17.664 23H21.856C22.0053 23 22.08 22.936 22.08 22.808L15.648 1.944C15.392 1.112 14.912 0.589333 14.208 0.375999C13.5253 0.162666 12.576 0.0559998 11.36 0.0559998C10.1867 0.0559998 9.25867 0.162666 8.576 0.375999C7.89333 0.589333 7.424 1.112 7.168 1.944L0.672 22.808ZM13.984 12.088C13.984 12.1307 13.984 12.1627 13.984 12.184C14.0053 12.2053 14.016 12.2267 14.016 12.248C14.016 12.3973 13.9307 12.472 13.76 12.472H8.992C8.82133 12.472 8.736 12.3973 8.736 12.248C8.736 12.2267 8.736 12.2053 8.736 12.184C8.75733 12.1627 8.768 12.1307 8.768 12.088L11.008 4.792C11.136 4.408 11.2533 4.216 11.36 4.216C11.4667 4.216 11.5413 4.25867 11.584 4.344C11.6267 4.408 11.68 4.55733 11.744 4.792L13.984 12.088ZM35.262 13.464C35.7953 13.464 36.254 13.5173 36.638 13.624C37.0433 13.7093 37.3527 13.8693 37.566 14.104C37.822 14.4027 37.9713 14.744 38.014 15.128C38.0567 15.4907 38.078 15.8427 38.078 16.184C38.078 16.4187 38.0673 16.6427 38.046 16.856C38.0247 17.0693 37.9607 17.2933 37.854 17.528C37.7473 17.784 37.5767 18.072 37.342 18.392C37.1073 18.6907 36.83 18.84 36.51 18.84H26.206C25.9927 18.84 25.886 18.9467 25.886 19.16V22.68C25.886 22.8933 25.9927 23 26.206 23H37.854C38.3233 23 38.814 22.8613 39.326 22.584C39.8593 22.2853 40.3073 21.9867 40.67 21.688C41.8647 20.6427 42.5473 19.1493 42.718 17.208C42.7607 17.0373 42.782 16.856 42.782 16.664C42.782 16.4507 42.782 16.2267 42.782 15.992C42.782 15.5013 42.75 14.9893 42.686 14.456C42.622 13.9227 42.5047 13.4107 42.334 12.92C42.1847 12.4293 41.982 11.9707 41.726 11.544C41.4913 11.1173 41.1927 10.7547 40.83 10.456C40.2113 9.944 39.5393 9.60267 38.814 9.432C38.0887 9.24 37.3953 9.144 36.734 9.144H33.15C32.6593 9.144 32.2007 9.12267 31.774 9.08C31.3687 9.03733 31.0487 8.89867 30.814 8.664C30.558 8.38667 30.4087 8.06667 30.366 7.704C30.3233 7.34133 30.302 6.98933 30.302 6.648C30.302 6.43467 30.3127 6.22133 30.334 6.008C30.3553 5.79467 30.4193 5.58133 30.526 5.368C30.6327 5.13333 30.8033 4.888 31.038 4.632C31.294 4.35467 31.5713 4.216 31.87 4.216H41.118C41.3313 4.216 41.438 4.10933 41.438 3.896V0.375999C41.438 0.162666 41.3313 0.0559998 41.118 0.0559998H30.526C30.014 0.0559998 29.4913 0.194666 28.958 0.471998C28.4247 0.749332 27.9767 1.03733 27.614 1.336C26.3767 2.36 25.6833 3.8 25.534 5.656C25.4913 5.848 25.47 6.04 25.47 6.232C25.47 6.424 25.47 6.62667 25.47 6.84C25.47 7.33067 25.502 7.832 25.566 8.344C25.6513 8.83467 25.7687 9.32533 25.918 9.816C26.0887 10.2853 26.2913 10.7333 26.526 11.16C26.782 11.5653 27.0913 11.9173 27.454 12.216C28.0727 12.7067 28.7553 13.0373 29.502 13.208C30.27 13.3787 30.9847 13.464 31.646 13.464H35.262ZM46.762 22.68C46.762 22.8933 46.8687 23 47.082 23H51.082C51.2953 23 51.402 22.8933 51.402 22.68V13.88C51.402 13.6667 51.5087 13.56 51.722 13.56H59.306C59.5193 13.56 59.626 13.6667 59.626 13.88V22.68C59.626 22.8933 59.7327 23 59.946 23H63.946C64.1593 23 64.266 22.8933 64.266 22.68V0.375999C64.266 0.162666 64.1593 0.0559998 63.946 0.0559998H59.946C59.7327 0.0559998 59.626 0.162666 59.626 0.375999V9.08C59.626 9.29333 59.5193 9.4 59.306 9.4H51.722C51.5087 9.4 51.402 9.29333 51.402 9.08V0.375999C51.402 0.162666 51.2953 0.0559998 51.082 0.0559998H47.082C46.8687 0.0559998 46.762 0.162666 46.762 0.375999V22.68ZM68.5183 0.375999V22.68C68.5183 22.8933 68.6249 23 68.8383 23H72.8383C73.0516 23 73.1583 22.8933 73.1583 22.68V0.375999C73.1583 0.162666 73.0516 0.0559998 72.8383 0.0559998H68.8383C68.6249 0.0559998 68.5183 0.162666 68.5183 0.375999Z" fill="#083229"/>
<path d="M87.2228 4.536C87.2228 4.32267 87.3294 4.216 87.5428 4.216H92.7588C92.9721 4.216 93.0788 4.10933 93.0788 3.896V0.375999C93.0788 0.162666 92.9721 0.0559998 92.7588 0.0559998H77.0468C76.8334 0.0559998 76.7268 0.162666 76.7268 0.375999V3.896C76.7268 4.10933 76.8334 4.216 77.0468 4.216H82.2628C82.4761 4.216 82.5828 4.32267 82.5828 4.536V22.68C82.5828 22.8933 82.6894 23 82.9028 23H86.9028C87.1161 23 87.2228 22.8933 87.2228 22.68V4.536ZM96.5613 19.64C96.5613 20.0453 96.6466 20.4507 96.8173 20.856C97.0093 21.24 97.2546 21.592 97.5533 21.912C97.8519 22.232 98.1933 22.4987 98.5773 22.712C98.9613 22.904 99.3453 23 99.7293 23H112.113C112.327 23 112.433 22.8933 112.433 22.68V19.16C112.433 18.9467 112.327 18.84 112.113 18.84H101.521C101.308 18.84 101.201 18.7333 101.201 18.52V13.88C101.201 13.6667 101.308 13.56 101.521 13.56H111.345C111.559 13.56 111.665 13.4533 111.665 13.24V9.56C111.665 9.34667 111.559 9.24 111.345 9.24H101.521C101.308 9.24 101.201 9.13333 101.201 8.92V4.568C101.201 4.33333 101.308 4.216 101.521 4.216H112.113C112.327 4.216 112.433 4.10933 112.433 3.896V0.375999C112.433 0.162666 112.295 0.0559998 112.017 0.0559998H101.169C99.6759 0.0559998 98.5346 0.514666 97.7453 1.432C96.9559 2.328 96.5613 3.50133 96.5613 4.952V19.64ZM116.47 16.152C116.47 16.728 116.523 17.2187 116.63 17.624C116.737 18.008 116.843 18.3173 116.95 18.552C117.355 19.4907 117.878 20.3013 118.518 20.984C119.158 21.6453 119.883 22.1253 120.694 22.424C121.057 22.5733 121.483 22.712 121.974 22.84C122.465 22.9467 123.03 23 123.67 23H131.862C132.075 23 132.182 22.8933 132.182 22.68V19.16C132.182 18.9467 132.075 18.84 131.862 18.84H123.574C122.827 18.776 122.241 18.5307 121.814 18.104C121.409 17.656 121.174 17.0587 121.11 16.312V8.216C121.11 7.10667 121.313 6.21067 121.718 5.528C122.123 4.824 122.742 4.38667 123.574 4.216H131.862C132.075 4.216 132.182 4.10933 132.182 3.896V0.375999C132.182 0.162666 132.075 0.0559998 131.862 0.0559998H123.382C122.337 0.0559998 121.355 0.269333 120.438 0.695999C119.521 1.12267 118.731 1.72 118.07 2.488C117.835 2.76533 117.601 3.07467 117.366 3.416C117.153 3.736 116.982 4.13067 116.854 4.6C116.598 5.41067 116.47 6.27467 116.47 7.192V16.152ZM136.418 22.68C136.418 22.8933 136.525 23 136.738 23H140.738C140.952 23 141.058 22.8933 141.058 22.68V13.88C141.058 13.6667 141.165 13.56 141.378 13.56H148.962C149.176 13.56 149.282 13.6667 149.282 13.88V22.68C149.282 22.8933 149.389 23 149.602 23H153.602C153.816 23 153.922 22.8933 153.922 22.68V0.375999C153.922 0.162666 153.816 0.0559998 153.602 0.0559998H149.602C149.389 0.0559998 149.282 0.162666 149.282 0.375999V9.08C149.282 9.29333 149.176 9.4 148.962 9.4H141.378C141.165 9.4 141.058 9.29333 141.058 9.08V0.375999C141.058 0.162666 140.952 0.0559998 140.738 0.0559998H136.738C136.525 0.0559998 136.418 0.162666 136.418 0.375999V22.68Z" fill="#1BBC9B"/>
</svg>
