<svg width="159" height="200" viewBox="0 0 159 200" fill="none" xmlns="http://www.w3.org/2000/svg">
<mask id="path-1-inside-1" fill="white">
<path d="M100.076 156.291C118.706 151.299 134.886 139.705 145.602 123.668C156.317 107.631 160.837 88.2455 158.32 69.1232C155.802 50.0008 146.419 32.4458 131.918 19.7287C117.417 7.0117 98.7874 3.75539e-06 79.5 0C60.2127 -3.75539e-06 41.583 7.01169 27.082 19.7287C12.581 32.4458 3.19765 50.0008 0.680137 69.1231C-1.83737 88.2455 2.68268 107.631 13.3982 123.668C24.1136 139.705 40.2937 151.299 58.9239 156.291L68.2904 121.335C58.1409 118.615 49.3262 112.299 43.4886 103.562C37.6509 94.8254 35.1885 84.2644 36.56 73.8468C37.9315 63.4292 43.0434 53.8655 50.9434 46.9374C58.8433 40.0093 68.9925 36.1894 79.5 36.1895C90.0075 36.1895 100.157 40.0093 108.057 46.9374C115.957 53.8655 121.069 63.4292 122.44 73.8468C123.812 84.2644 121.349 94.8254 115.511 103.562C109.674 112.299 100.859 118.615 90.7096 121.335L100.076 156.291Z"/>
</mask>
<path d="M100.076 156.291C118.706 151.299 134.886 139.705 145.602 123.668C156.317 107.631 160.837 88.2455 158.32 69.1232C155.802 50.0008 146.419 32.4458 131.918 19.7287C117.417 7.0117 98.7874 3.75539e-06 79.5 0C60.2127 -3.75539e-06 41.583 7.01169 27.082 19.7287C12.581 32.4458 3.19765 50.0008 0.680137 69.1231C-1.83737 88.2455 2.68268 107.631 13.3982 123.668C24.1136 139.705 40.2937 151.299 58.9239 156.291L68.2904 121.335C58.1409 118.615 49.3262 112.299 43.4886 103.562C37.6509 94.8254 35.1885 84.2644 36.56 73.8468C37.9315 63.4292 43.0434 53.8655 50.9434 46.9374C58.8433 40.0093 68.9925 36.1894 79.5 36.1895C90.0075 36.1895 100.157 40.0093 108.057 46.9374C115.957 53.8655 121.069 63.4292 122.44 73.8468C123.812 84.2644 121.349 94.8254 115.511 103.562C109.674 112.299 100.859 118.615 90.7096 121.335L100.076 156.291Z" fill="#083229" stroke="#083229" stroke-width="2" mask="url(#path-1-inside-1)"/>
<path d="M96.9692 98.8111C95.1987 101.878 92.6523 104.424 89.5858 106.194C86.5194 107.965 83.0409 108.897 79.5 108.897C75.9592 108.897 72.4807 107.965 69.4142 106.194C66.3477 104.424 63.8013 101.878 62.0309 98.8111L68.269 95.2095C69.4072 97.181 71.0443 98.8181 73.0158 99.9564C74.9872 101.095 77.2236 101.694 79.5 101.694C81.7765 101.694 84.0128 101.095 85.9843 99.9564C87.9557 98.8181 89.5928 97.181 90.7311 95.2095L96.9692 98.8111Z" fill="#1BBC9B"/>
<path d="M0 199.808C0 199.936 0.0885349 200 0.265605 200H4.58168C4.80302 200 4.94689 199.893 5.01329 199.679L6.77292 194.194C6.83932 193.959 6.98319 193.841 7.20453 193.841H15.0067C15.228 193.841 15.3719 193.948 15.4383 194.162L17.1979 199.711C17.2643 199.904 17.4082 200 17.6295 200H21.9788C22.1337 200 22.2112 199.936 22.2112 199.808L15.5379 178.893C15.2723 178.059 14.7743 177.535 14.0439 177.321C13.3356 177.107 12.3506 177 11.089 177C9.87165 177 8.90883 177.107 8.20055 177.321C7.49227 177.535 7.00533 178.059 6.73972 178.893L0 199.808ZM13.8115 189.061C13.8115 189.104 13.8115 189.136 13.8115 189.158C13.8336 189.179 13.8447 189.2 13.8447 189.222C13.8447 189.371 13.7561 189.446 13.579 189.446H8.63216C8.45509 189.446 8.36655 189.371 8.36655 189.222C8.36655 189.2 8.36655 189.179 8.36655 189.158C8.38869 189.136 8.39975 189.104 8.39975 189.061L10.7238 181.748C10.8566 181.363 10.9783 181.17 11.089 181.17C11.1997 181.17 11.2771 181.213 11.3214 181.298C11.3657 181.363 11.421 181.512 11.4874 181.748L13.8115 189.061Z" fill="#083229"/>
<path d="M35.8878 190.441C36.4411 190.441 36.917 190.494 37.3154 190.601C37.7359 190.687 38.0569 190.847 38.2782 191.082C38.5438 191.382 38.6988 191.724 38.743 192.109C38.7873 192.472 38.8094 192.825 38.8094 193.167C38.8094 193.403 38.7984 193.627 38.7762 193.841C38.7541 194.055 38.6877 194.279 38.577 194.515C38.4664 194.771 38.2893 195.06 38.0458 195.381C37.8023 195.68 37.5146 195.83 37.1826 195.83H26.492C26.2707 195.83 26.16 195.937 26.16 196.151V199.679C26.16 199.893 26.2707 200 26.492 200H38.577C39.064 200 39.573 199.861 40.1042 199.583C40.6576 199.284 41.1224 198.984 41.4987 198.685C42.7382 197.637 43.4464 196.14 43.6235 194.194C43.6678 194.023 43.6899 193.841 43.6899 193.649C43.6899 193.435 43.6899 193.21 43.6899 192.975C43.6899 192.483 43.6567 191.97 43.5903 191.435C43.5239 190.901 43.4022 190.387 43.2251 189.895C43.0702 189.404 42.8599 188.944 42.5943 188.516C42.3508 188.088 42.0409 187.725 41.6647 187.425C41.0228 186.912 40.3256 186.57 39.573 186.399C38.8205 186.206 38.1011 186.11 37.415 186.11H33.6965C33.1875 186.11 32.7116 186.089 32.2689 186.046C31.8484 186.003 31.5164 185.864 31.2729 185.629C31.0073 185.351 30.8524 185.03 30.8081 184.667C30.7638 184.303 30.7417 183.95 30.7417 183.608C30.7417 183.394 30.7527 183.18 30.7749 182.967C30.797 182.753 30.8634 182.539 30.9741 182.325C31.0848 182.09 31.2618 181.844 31.5053 181.587C31.7709 181.309 32.0586 181.17 32.3685 181.17H41.9635C42.1848 181.17 42.2955 181.063 42.2955 180.849V177.321C42.2955 177.107 42.1848 177 41.9635 177H30.9741C30.4429 177 29.9006 177.139 29.3473 177.417C28.7939 177.695 28.3291 177.984 27.9528 178.283C26.6691 179.31 25.9497 180.753 25.7948 182.614C25.7505 182.806 25.7284 182.999 25.7284 183.191C25.7284 183.384 25.7284 183.587 25.7284 183.801C25.7284 184.292 25.7616 184.795 25.828 185.308C25.9165 185.8 26.0383 186.292 26.1932 186.784C26.3703 187.254 26.5805 187.703 26.824 188.131C27.0896 188.537 27.4106 188.89 27.7868 189.19C28.4287 189.682 29.137 190.013 29.9117 190.184C30.7085 190.355 31.45 190.441 32.1361 190.441H35.8878Z" fill="#083229"/>
<path d="M47.8192 199.679C47.8192 199.893 47.9299 200 48.1512 200H52.3013C52.5227 200 52.6333 199.893 52.6333 199.679V190.858C52.6333 190.644 52.744 190.537 52.9653 190.537H60.8339C61.0552 190.537 61.1659 190.644 61.1659 190.858V199.679C61.1659 199.893 61.2765 200 61.4979 200H65.648C65.8693 200 65.98 199.893 65.98 199.679V177.321C65.98 177.107 65.8693 177 65.648 177H61.4979C61.2765 177 61.1659 177.107 61.1659 177.321V186.046C61.1659 186.26 61.0552 186.367 60.8339 186.367H52.9653C52.744 186.367 52.6333 186.26 52.6333 186.046V177.321C52.6333 177.107 52.5227 177 52.3013 177H48.1512C47.9299 177 47.8192 177.107 47.8192 177.321V199.679Z" fill="#083229"/>
<path d="M70.3918 177.321V199.679C70.3918 199.893 70.5024 200 70.7238 200H74.8738C75.0952 200 75.2059 199.893 75.2059 199.679V177.321C75.2059 177.107 75.0952 177 74.8738 177H70.7238C70.5024 177 70.3918 177.107 70.3918 177.321Z" fill="#083229"/>
<path d="M89.798 181.491C89.798 181.277 89.9087 181.17 90.13 181.17H95.5417C95.7631 181.17 95.8737 181.063 95.8737 180.849V177.321C95.8737 177.107 95.7631 177 95.5417 177H79.2402C79.0189 177 78.9082 177.107 78.9082 177.321V180.849C78.9082 181.063 79.0189 181.17 79.2402 181.17H84.6519C84.8733 181.17 84.9839 181.277 84.9839 181.491V199.679C84.9839 199.893 85.0946 200 85.316 200H89.466C89.6874 200 89.798 199.893 89.798 199.679V181.491Z" fill="#1BBC9B"/>
<path d="M99.4869 196.632C99.4869 197.038 99.5754 197.444 99.7525 197.851C99.9517 198.236 100.206 198.589 100.516 198.909C100.826 199.23 101.18 199.497 101.579 199.711C101.977 199.904 102.375 200 102.774 200H115.622C115.844 200 115.954 199.893 115.954 199.679V196.151C115.954 195.937 115.844 195.83 115.622 195.83H104.633C104.412 195.83 104.301 195.723 104.301 195.509V190.858C104.301 190.644 104.412 190.537 104.633 190.537H114.826C115.047 190.537 115.158 190.43 115.158 190.216V186.527C115.158 186.313 115.047 186.206 114.826 186.206H104.633C104.412 186.206 104.301 186.099 104.301 185.886V181.523C104.301 181.288 104.412 181.17 104.633 181.17H115.622C115.844 181.17 115.954 181.063 115.954 180.849V177.321C115.954 177.107 115.811 177 115.523 177H104.268C102.718 177 101.534 177.46 100.715 178.379C99.8964 179.278 99.4869 180.454 99.4869 181.908V196.632Z" fill="#1BBC9B"/>
<path d="M120.143 193.135C120.143 193.713 120.198 194.205 120.309 194.611C120.419 194.996 120.53 195.306 120.641 195.541C121.061 196.482 121.603 197.295 122.267 197.979C122.931 198.642 123.684 199.123 124.525 199.423C124.901 199.572 125.344 199.711 125.853 199.84C126.362 199.947 126.949 200 127.613 200H136.112C136.333 200 136.444 199.893 136.444 199.679V196.151C136.444 195.937 136.333 195.83 136.112 195.83H127.513C126.738 195.766 126.13 195.52 125.687 195.092C125.267 194.643 125.023 194.044 124.957 193.296V185.18C124.957 184.068 125.167 183.17 125.588 182.485C126.008 181.78 126.65 181.341 127.513 181.17H136.112C136.333 181.17 136.444 181.063 136.444 180.849V177.321C136.444 177.107 136.333 177 136.112 177H127.314C126.229 177 125.211 177.214 124.259 177.642C123.308 178.069 122.489 178.668 121.803 179.438C121.559 179.716 121.316 180.026 121.072 180.368C120.851 180.689 120.674 181.085 120.541 181.555C120.275 182.368 120.143 183.234 120.143 184.153V193.135Z" fill="#1BBC9B"/>
<path d="M140.839 199.679C140.839 199.893 140.95 200 141.171 200H145.321C145.543 200 145.653 199.893 145.653 199.679V190.858C145.653 190.644 145.764 190.537 145.985 190.537H153.854C154.075 190.537 154.186 190.644 154.186 190.858V199.679C154.186 199.893 154.297 200 154.518 200H158.668C158.889 200 159 199.893 159 199.679V177.321C159 177.107 158.889 177 158.668 177H154.518C154.297 177 154.186 177.107 154.186 177.321V186.046C154.186 186.26 154.075 186.367 153.854 186.367H145.985C145.764 186.367 145.653 186.26 145.653 186.046V177.321C145.653 177.107 145.543 177 145.321 177H141.171C140.95 177 140.839 177.107 140.839 177.321V199.679Z" fill="#1BBC9B"/>
</svg>
