<svg width="159" height="159" viewBox="0 0 159 159" fill="none" xmlns="http://www.w3.org/2000/svg">
<mask id="path-1-inside-1" fill="white">
<path d="M100.076 156.291C118.706 151.299 134.886 139.705 145.602 123.668C156.317 107.631 160.837 88.2455 158.32 69.1232C155.802 50.0008 146.419 32.4458 131.918 19.7287C117.417 7.0117 98.7874 3.75539e-06 79.5 0C60.2127 -3.75539e-06 41.583 7.01169 27.082 19.7287C12.581 32.4458 3.19765 50.0008 0.680137 69.1231C-1.83737 88.2455 2.68268 107.631 13.3982 123.668C24.1136 139.705 40.2937 151.299 58.9239 156.291L68.2904 121.335C58.1409 118.615 49.3262 112.299 43.4886 103.562C37.6509 94.8254 35.1885 84.2644 36.56 73.8468C37.9315 63.4292 43.0434 53.8655 50.9434 46.9374C58.8433 40.0093 68.9925 36.1894 79.5 36.1895C90.0075 36.1895 100.157 40.0093 108.057 46.9374C115.957 53.8655 121.069 63.4292 122.44 73.8468C123.812 84.2644 121.349 94.8254 115.511 103.562C109.674 112.299 100.859 118.615 90.7096 121.335L100.076 156.291Z"/>
</mask>
<path d="M100.076 156.291C118.706 151.299 134.886 139.705 145.602 123.668C156.317 107.631 160.837 88.2455 158.32 69.1232C155.802 50.0008 146.419 32.4458 131.918 19.7287C117.417 7.0117 98.7874 3.75539e-06 79.5 0C60.2127 -3.75539e-06 41.583 7.01169 27.082 19.7287C12.581 32.4458 3.19765 50.0008 0.680137 69.1231C-1.83737 88.2455 2.68268 107.631 13.3982 123.668C24.1136 139.705 40.2937 151.299 58.9239 156.291L68.2904 121.335C58.1409 118.615 49.3262 112.299 43.4886 103.562C37.6509 94.8254 35.1885 84.2644 36.56 73.8468C37.9315 63.4292 43.0434 53.8655 50.9434 46.9374C58.8433 40.0093 68.9925 36.1894 79.5 36.1895C90.0075 36.1895 100.157 40.0093 108.057 46.9374C115.957 53.8655 121.069 63.4292 122.44 73.8468C123.812 84.2644 121.349 94.8254 115.511 103.562C109.674 112.299 100.859 118.615 90.7096 121.335L100.076 156.291Z" fill="#083229" stroke="#083229" stroke-width="2" mask="url(#path-1-inside-1)"/>
<path d="M96.9692 98.8111C95.1987 101.878 92.6523 104.424 89.5858 106.194C86.5194 107.965 83.0409 108.897 79.5 108.897C75.9592 108.897 72.4807 107.965 69.4142 106.194C66.3477 104.424 63.8013 101.878 62.0309 98.8111L68.269 95.2095C69.4072 97.181 71.0443 98.8181 73.0158 99.9564C74.9872 101.095 77.2236 101.694 79.5 101.694C81.7765 101.694 84.0128 101.095 85.9843 99.9564C87.9557 98.8181 89.5928 97.181 90.7311 95.2095L96.9692 98.8111Z" fill="#1BBC9B"/>
</svg>
